<svg width="379" height="415" viewBox="0 0 379 415" fill="none" xmlns="http://www.w3.org/2000/svg">
<g filter="url(#filter0_f_8_5068)">
<path d="M327.131 113.371C326.84 112.822 326.541 112.262 326.25 111.723L148.116 29.57C141.867 32.1477 135.797 35.2679 129.957 38.9037L327.131 113.371Z" fill="#FFE6B5"/>
</g>
<g filter="url(#filter1_f_8_5068)">
<path d="M329.599 118.19L329.105 117.173L84.7234 83.6206C80.6441 89.5279 76.8555 95.6792 73.2695 102.024L329.599 118.19Z" fill="#FFE6B5"/>
</g>
<g filter="url(#filter2_f_8_5068)">
<path d="M333.484 126.69L70.4854 365.688C71.4986 366.216 72.5206 366.704 73.5603 367.192C80.9543 370.753 88.8879 372.581 96.8998 372.571L333.801 127.422L333.484 126.69Z" fill="#FFE6B5"/>
</g>
<g filter="url(#filter3_f_8_5068)">
<path d="M321.502 103.559C320.436 101.841 319.326 100.143 318.198 98.4751L236.417 27.9024C231.06 25.4802 225.533 23.5923 219.897 22.2594C219.897 22.2594 216.893 21.507 211.677 20.8766L321.502 103.559Z" fill="#FFE6B5"/>
</g>
<g filter="url(#filter4_f_8_5068)">
<path d="M331.219 121.586C331.104 121.332 330.981 121.078 330.857 120.823L45.171 168.438C42.475 176.572 39.9463 184.777 37.5586 192.84L331.219 121.586Z" fill="#FFE6B5"/>
</g>
<g filter="url(#filter5_f_8_5068)">
<path d="M337.149 135.983C336.963 135.485 336.787 134.966 336.602 134.478L272.637 319.202C277.796 316.916 282.782 314.141 287.544 310.905L337.149 135.983Z" fill="#FFE6B5"/>
</g>
<g filter="url(#filter6_f_8_5068)">
<path d="M340.674 146.73C340.304 145.459 339.916 144.198 339.511 142.938L325.978 274.18C329.552 269.04 332.702 263.525 335.387 257.709L340.674 146.73Z" fill="#FFE6B5"/>
</g>
<g filter="url(#filter7_f_8_5068)">
<path d="M332.541 124.494L332.224 123.803L20.8457 277.942C21.1319 286.996 22.3746 295.976 24.5462 304.683L332.541 124.494Z" fill="#FFE6B5"/>
</g>
<g filter="url(#filter8_f_8_5068)">
<path d="M335.228 130.91C335.105 130.594 334.973 130.279 334.849 129.974L203.165 333.233C210.214 332.013 216.628 331.057 222.549 330.183L335.228 130.91Z" fill="#FFE6B5"/>
</g>
<path d="M68.4235 304.926H36.7051V414.492H68.4235V304.926Z" fill="#263238"/>
<path opacity="0.17" d="M68.4235 304.926H36.7051V414.492H68.4235V304.926Z" fill="white"/>
<path opacity="0.2" d="M68.4235 382.454C57.4032 385.865 46.7602 390.73 36.7051 396.953V414.492H68.4235V382.454Z" fill="#121212"/>
<path d="M116.002 295.451H84.2832V414.492H116.002V295.451Z" fill="#96ABC6"/>
<path opacity="0.2" d="M114.46 375.591C104.349 375.573 94.2551 376.532 84.2832 378.458V414.492H116.002V375.591H114.46Z" fill="#121212"/>
<path d="M163.579 267.744H131.86V414.492H163.579V267.744Z" fill="#263238"/>
<path opacity="0.17" d="M163.579 267.744H131.86V414.492H163.579V267.744Z" fill="white"/>
<path opacity="0.2" d="M163.579 378.905C153.931 377.767 143.552 376.648 131.86 376.048V414.492H163.579V378.905Z" fill="#121212"/>
<path d="M211.157 282.324H179.438V414.492H211.157V282.324Z" fill="#96ABC6"/>
<path opacity="0.2" d="M211.157 382.311C200.566 382.623 189.969 382.107 179.438 380.766V414.492H211.157V382.311Z" fill="#121212"/>
<path d="M258.734 205.031H227.016V414.492H258.734V205.031Z" fill="#263238"/>
<path opacity="0.17" d="M258.734 205.031H227.016V414.492H258.734V205.031Z" fill="white"/>
<path opacity="0.2" d="M258.734 371.199C248.458 375.543 237.833 378.697 227.016 380.614V414.492H258.734V371.199Z" fill="#121212"/>
<path d="M357.414 166.394H325.695V414.491H357.414V166.394Z" fill="#263238"/>
<path opacity="0.17" d="M357.414 166.394H325.695V414.491H357.414V166.394Z" fill="white"/>
<path opacity="0.2" d="M357.414 331.921C347.136 336.261 336.512 339.415 325.695 341.336V414.492H357.414V331.921Z" fill="#121212"/>
<path d="M306.312 175.494H274.594V414.492H306.312V175.494Z" fill="#96ABC6"/>
<path opacity="0.2" d="M274.594 364.244V414.492H306.312V349.338C296.171 354.28 285.466 359.343 274.594 364.244Z" fill="#121212"/>
<path d="M378.559 415H16.4405C16.3237 415 16.2116 414.947 16.129 414.851C16.0464 414.756 16 414.627 16 414.492C16 414.357 16.0464 414.228 16.129 414.132C16.2116 414.037 16.3237 413.984 16.4405 413.984H378.559C378.676 413.984 378.788 414.037 378.871 414.132C378.954 414.228 379 414.357 379 414.492C379 414.627 378.954 414.756 378.871 414.851C378.788 414.947 378.676 415 378.559 415Z" fill="#263238"/>
<path d="M112.698 138.708L126.275 162.094L153.006 159.196V165.459C153.006 165.459 127.729 175.352 124.592 176.308C121.455 177.264 106.001 164.981 106.001 164.981C106.001 164.981 104.134 147.381 112.698 138.708Z" fill="white"/>
<path d="M124.239 176.867C120.301 176.867 107.288 166.618 105.737 165.398C105.685 165.357 105.641 165.305 105.607 165.244C105.574 165.182 105.552 165.114 105.543 165.042C105.473 164.31 103.781 147.076 112.38 138.322C112.427 138.274 112.482 138.238 112.542 138.216C112.601 138.195 112.665 138.189 112.727 138.199C112.789 138.208 112.848 138.233 112.901 138.272C112.954 138.311 112.998 138.363 113.032 138.423L126.468 161.555L153.006 158.687C153.068 158.681 153.131 158.69 153.19 158.713C153.249 158.735 153.303 158.772 153.35 158.819C153.394 158.868 153.43 158.926 153.454 158.991C153.478 159.056 153.491 159.125 153.491 159.196V165.459C153.491 165.566 153.462 165.67 153.408 165.758C153.355 165.845 153.279 165.911 153.191 165.947C152.16 166.354 127.861 175.85 124.75 176.806C124.583 176.852 124.411 176.872 124.239 176.867ZM106.424 164.666C112.592 169.546 122.354 176.44 124.486 175.789C127.385 174.894 149.711 166.181 152.575 165.073V159.724L126.319 162.561C126.238 162.572 126.157 162.557 126.084 162.518C126.011 162.478 125.949 162.416 125.905 162.337L112.609 139.45C105.244 147.473 106.257 162.673 106.424 164.696V164.666Z" fill="#263238"/>
<mask id="mask0_8_5068" style="mask-type:luminance" maskUnits="userSpaceOnUse" x="105" y="138" width="49" height="39">
<mask id="mask1_8_5068" style="mask-type:luminance" maskUnits="userSpaceOnUse" x="105" y="138" width="49" height="39">
<path d="M112.698 138.708L126.275 162.094L153.006 159.196V165.459C153.006 165.459 127.729 175.352 124.592 176.308C121.455 177.264 106.001 164.981 106.001 164.981C106.001 164.981 104.134 147.381 112.698 138.708Z" fill="white"/>
</mask>
<g mask="url(#mask1_8_5068)">
<path d="M124.239 176.867C120.301 176.867 107.288 166.618 105.737 165.398C105.685 165.358 105.641 165.305 105.607 165.244C105.574 165.182 105.552 165.114 105.543 165.042C105.473 164.31 103.781 147.076 112.38 138.322C112.427 138.274 112.482 138.238 112.542 138.216C112.601 138.195 112.665 138.189 112.727 138.199C112.789 138.208 112.848 138.234 112.901 138.272C112.954 138.311 112.998 138.363 113.032 138.424L126.468 161.555L153.006 158.687C153.068 158.681 153.131 158.69 153.19 158.713C153.249 158.735 153.303 158.772 153.35 158.82C153.394 158.868 153.43 158.926 153.454 158.991C153.478 159.056 153.491 159.125 153.491 159.196V165.459C153.491 165.566 153.462 165.671 153.408 165.758C153.355 165.845 153.279 165.911 153.191 165.947C152.16 166.354 127.861 175.85 124.75 176.806C124.583 176.852 124.411 176.873 124.239 176.867ZM106.424 164.666C112.592 169.546 122.354 176.44 124.486 175.789C127.385 174.894 149.711 166.181 152.575 165.073V159.725L126.319 162.561C126.238 162.572 126.157 162.557 126.084 162.518C126.011 162.478 125.949 162.416 125.905 162.338L112.609 139.451C105.244 147.473 106.257 162.673 106.424 164.696V164.666Z" fill="white"/>
</g>
</mask>
<g mask="url(#mask0_8_5068)">
<path d="M137.023 163.131C138.177 161.006 123.464 169.231 122.776 168.967C122.089 168.703 123.922 165.246 122.776 163.66C121.631 162.073 119.79 167.371 118.635 163.66C117.638 160.79 116.408 158.036 114.961 155.434L108.926 144.25C104.767 153.268 106.01 164.941 106.01 164.941C106.01 164.941 121.472 177.233 124.6 176.267C126.794 175.596 139.834 170.553 147.508 167.584C141.772 168.276 132.142 169.374 130.865 169.191C128.979 168.967 135.878 165.246 137.023 163.131Z" fill="#96ABC6"/>
<path opacity="0.5" d="M137.023 163.131C138.177 161.006 123.464 169.231 122.776 168.967C122.089 168.703 123.922 165.246 122.776 163.66C121.631 162.073 119.79 167.371 118.635 163.66C117.638 160.79 116.408 158.036 114.961 155.434L108.926 144.25C104.767 153.268 106.01 164.941 106.01 164.941C106.01 164.941 121.472 177.233 124.6 176.267C126.794 175.596 139.834 170.553 147.508 167.584C141.772 168.276 132.142 169.374 130.865 169.191C128.979 168.967 135.878 165.246 137.023 163.131Z" fill="white"/>
</g>
<path d="M149.878 166.455C149.771 166.456 149.667 166.411 149.588 166.328C149.508 166.245 149.458 166.131 149.447 166.008L148.812 159.735C148.799 159.6 148.833 159.465 148.907 159.359C148.981 159.253 149.087 159.185 149.204 159.17C149.321 159.155 149.438 159.195 149.53 159.28C149.622 159.365 149.68 159.488 149.693 159.623L150.319 165.886C150.331 166.02 150.298 166.155 150.225 166.262C150.153 166.368 150.047 166.438 149.931 166.455H149.878Z" fill="#263238"/>
<path d="M153.006 159.196L155.305 155.576L162.821 155.098C162.821 155.098 163.244 162.327 162.195 163.537C161.147 164.747 153.006 165.459 153.006 165.459V159.196Z" fill="white"/>
<path d="M153.007 165.967C152.952 165.969 152.897 165.959 152.846 165.936C152.794 165.913 152.747 165.879 152.707 165.835C152.663 165.787 152.628 165.728 152.603 165.664C152.579 165.599 152.567 165.529 152.567 165.459V159.196C152.564 159.085 152.596 158.978 152.655 158.891L154.945 155.281C154.985 155.22 155.035 155.169 155.093 155.132C155.15 155.095 155.214 155.073 155.28 155.068L162.805 154.59C162.862 154.586 162.919 154.595 162.974 154.617C163.028 154.639 163.078 154.673 163.121 154.718C163.163 154.762 163.198 154.816 163.222 154.876C163.247 154.936 163.26 155.001 163.263 155.068C163.333 156.308 163.642 162.592 162.505 163.893C161.368 165.195 154.426 165.845 153.042 165.927L153.007 165.967ZM153.448 159.358V164.91C156.743 164.595 161.271 163.893 161.888 163.171C162.505 162.449 162.549 158.525 162.408 155.637L155.536 156.074L153.448 159.358Z" fill="#263238"/>
<path d="M159.49 154.376C159.49 154.376 158.442 163.771 159.49 163.771C160.539 163.771 164.09 164.015 164.09 161.85C164.09 159.684 164.715 153.655 163.455 153.411C162.195 153.167 159.49 154.376 159.49 154.376Z" fill="white"/>
<path d="M160.302 164.29H159.491C159.397 164.287 159.304 164.262 159.219 164.214C159.134 164.167 159.058 164.099 158.998 164.015C158.187 162.998 158.769 156.898 159.051 154.305C159.063 154.215 159.096 154.13 159.145 154.059C159.195 153.988 159.259 153.932 159.333 153.898C159.623 153.766 162.196 152.648 163.535 152.882C164.875 153.116 164.769 155.932 164.593 159.999C164.593 160.731 164.531 161.382 164.531 161.849C164.534 162.107 164.492 162.363 164.405 162.601C164.319 162.839 164.191 163.054 164.029 163.232C163.192 164.188 161.482 164.29 160.302 164.29ZM159.659 163.273H159.826C160.707 163.273 162.734 163.273 163.447 162.51C163.524 162.425 163.585 162.322 163.626 162.209C163.667 162.095 163.687 161.973 163.685 161.849C163.685 161.372 163.685 160.701 163.747 159.948C163.923 156.023 163.817 153.99 163.421 153.909C162.212 153.934 161.017 154.216 159.897 154.742C159.509 158.362 159.306 162.459 159.623 163.273H159.659Z" fill="#263238"/>
<path d="M153.887 157.508C153.887 157.508 155.552 153.655 156.812 153.441C158.072 153.227 159.526 153.685 159.526 154.407C159.526 155.129 160.777 159.948 159.526 160.436C158.274 160.924 157.649 159.226 157.649 159.226L157.226 158.26C157.129 158.794 156.9 159.283 156.567 159.669C156.234 160.056 155.811 160.322 155.349 160.436" fill="white"/>
<path d="M159.05 160.995C158.652 160.957 158.271 160.792 157.949 160.519C157.627 160.246 157.377 159.877 157.226 159.45C156.823 160.176 156.191 160.694 155.464 160.894C155.406 160.91 155.346 160.913 155.287 160.902C155.229 160.891 155.172 160.867 155.121 160.831C155.071 160.795 155.027 160.748 154.992 160.693C154.957 160.637 154.932 160.574 154.918 160.507C154.904 160.441 154.901 160.371 154.911 160.304C154.92 160.236 154.941 160.171 154.972 160.112C155.003 160.054 155.044 160.003 155.092 159.962C155.14 159.922 155.195 159.893 155.252 159.877C155.629 159.787 155.975 159.575 156.25 159.265C156.525 158.955 156.717 158.56 156.803 158.128C156.817 158.022 156.86 157.924 156.926 157.847C156.992 157.771 157.077 157.721 157.169 157.704C157.261 157.687 157.356 157.704 157.439 157.753C157.522 157.802 157.589 157.88 157.631 157.976L158.045 158.942C158.107 159.094 158.556 160.202 159.393 159.887C159.667 159.786 159.86 158.942 159.261 155.525C159.177 155.138 159.121 154.744 159.094 154.346C158.775 154.096 158.415 153.925 158.035 153.844C157.656 153.764 157.266 153.775 156.891 153.878C156.178 154.021 154.944 156.196 154.248 157.701C154.223 157.761 154.187 157.815 154.144 157.86C154.1 157.904 154.05 157.938 153.995 157.96C153.94 157.981 153.882 157.99 153.824 157.986C153.766 157.982 153.71 157.965 153.658 157.935C153.556 157.872 153.478 157.766 153.442 157.639C153.406 157.512 153.414 157.374 153.464 157.254C153.763 156.562 155.305 153.187 156.706 152.882C157.69 152.648 158.715 152.866 159.561 153.492C159.675 153.593 159.768 153.722 159.834 153.87C159.899 154.017 159.935 154.18 159.94 154.346C159.94 154.458 160.019 154.915 160.09 155.363C160.548 158.006 160.865 160.446 159.64 160.894C159.45 160.965 159.25 160.999 159.05 160.995Z" fill="#263238"/>
<path d="M74.9786 193.216L75.6394 236.174L53.833 282.69L57.7978 285.741C57.7978 285.741 88.8555 246.85 89.9568 243.291C91.0581 239.733 97.4459 207.705 97.4459 207.705C97.4459 207.705 99.6485 197.283 95.904 191.691C92.1595 186.099 79.6042 181.778 74.9786 193.216Z" fill="#263238"/>
<path d="M57.7984 286.249C57.7115 286.247 57.6265 286.219 57.5517 286.168L53.5869 283.117C53.4976 283.044 53.4343 282.935 53.4084 282.812C53.3825 282.689 53.3959 282.559 53.446 282.446L75.1995 236.052L74.5387 193.226C74.5254 193.153 74.5254 193.076 74.5387 193.003C75.2829 190.974 76.4892 189.215 78.0296 187.914C79.57 186.613 81.387 185.817 83.2877 185.611C88.5125 184.94 93.9663 188.021 96.213 191.376C100.046 197.1 97.9311 207.39 97.8342 207.827C97.5787 209.128 91.4288 239.916 90.3363 243.464C89.2437 247.013 59.3579 284.49 58.0892 286.086C58.0136 286.181 57.9097 286.239 57.7984 286.249ZM54.4063 282.528L57.7279 285.08C66.5386 274.048 88.6711 245.935 89.5433 243.118C90.6182 239.631 96.9531 207.908 97.0148 207.593C97.0148 207.481 99.1205 197.334 95.5522 192.006C93.4993 188.956 88.2746 185.997 83.4199 186.618C81.6872 186.804 80.0299 187.526 78.6223 188.707C77.2146 189.887 76.1084 191.484 75.4198 193.328L76.0806 236.164C76.081 236.252 76.0628 236.339 76.0277 236.418L54.4063 282.528Z" fill="#263238"/>
<mask id="mask2_8_5068" style="mask-type:luminance" maskUnits="userSpaceOnUse" x="53" y="186" width="46" height="100">
<mask id="mask3_8_5068" style="mask-type:luminance" maskUnits="userSpaceOnUse" x="53" y="186" width="46" height="100">
<path d="M74.9786 193.216L75.6394 236.174L53.833 282.69L57.7978 285.741C57.7978 285.741 88.8555 246.85 89.9568 243.291C91.0581 239.733 97.4459 207.705 97.4459 207.705C97.4459 207.705 99.6485 197.283 95.904 191.691C92.1595 186.099 79.6042 181.778 74.9786 193.216Z" fill="white"/>
</mask>
<g mask="url(#mask3_8_5068)">
<path d="M57.7984 286.249C57.7115 286.247 57.6265 286.219 57.5517 286.167L53.5869 283.117C53.4976 283.043 53.4343 282.935 53.4084 282.812C53.3825 282.689 53.3959 282.559 53.446 282.446L75.1995 236.052L74.5387 193.226C74.5254 193.152 74.5254 193.076 74.5387 193.003C75.2829 190.974 76.4892 189.215 78.0296 187.914C79.57 186.612 81.387 185.817 83.2877 185.611C88.5125 184.94 93.9663 188.02 96.213 191.376C100.046 197.1 97.9311 207.39 97.8342 207.827C97.5787 209.128 91.4288 239.915 90.3363 243.464C89.2437 247.012 59.3579 284.49 58.0892 286.086C58.0136 286.181 57.9097 286.239 57.7984 286.249ZM54.4063 282.527L57.7279 285.08C66.5386 274.048 88.6711 245.935 89.5433 243.118C90.6182 239.631 96.9531 207.908 97.0148 207.593C97.0148 207.481 99.1205 197.334 95.5522 192.006C93.4993 188.956 88.2746 185.997 83.4199 186.617C81.6872 186.804 80.0299 187.526 78.6223 188.706C77.2146 189.887 76.1084 191.484 75.4198 193.328L76.0806 236.164C76.081 236.252 76.0628 236.339 76.0277 236.418L54.4063 282.527Z" fill="white"/>
</g>
</mask>
<g mask="url(#mask2_8_5068)">
<path opacity="0.2" d="M88.8033 238.939C87.4817 240.088 70.9617 266.442 63.085 279.081C71.9926 267.805 89.1381 245.914 89.9575 243.291C91.0589 239.732 97.4466 207.705 97.4466 207.705C97.4466 207.705 97.57 207.105 97.7109 206.119C96.125 198.605 88.5831 190.664 87.0588 193.165L84.8826 212.026C84.8826 212.026 84.8826 227.369 85.3143 228.884C85.746 230.399 89.8959 227.125 88.8386 228.884C87.7813 230.643 80.7768 237.933 82.5213 237.933C84.2658 237.933 90.5478 237.434 88.8033 238.939Z" fill="white"/>
</g>
<path d="M57.798 285.741C57.798 285.741 58.0183 293.366 58.4588 294.637C58.8993 295.908 60.6615 301.754 61.3223 303.025C61.9831 304.296 61.102 305.059 60.0007 305.059C58.8993 305.059 56.2561 305.059 55.1548 303.788C54.0535 302.517 52.2913 298.196 50.7495 296.162C49.2076 294.129 45.0225 291.587 46.3441 289.045C47.6657 286.503 53.8332 282.69 53.8332 282.69L57.798 285.741Z" fill="white"/>
<path d="M60.001 305.567C58.8204 305.567 56.0715 305.567 54.838 304.144C54.0574 303.049 53.3727 301.867 52.7939 300.616C52.0969 299.166 51.3014 297.782 50.415 296.478C49.899 295.85 49.3423 295.269 48.7498 294.739C46.9877 293.061 44.8114 290.977 45.9656 288.76C47.3313 286.127 53.3666 282.375 53.6221 282.223C53.6898 282.175 53.7675 282.15 53.8468 282.15C53.926 282.15 54.0038 282.175 54.0715 282.223L58.0363 285.273C58.0954 285.318 58.1445 285.378 58.1797 285.448C58.2149 285.519 58.2352 285.598 58.2389 285.68C58.327 288.73 58.5649 293.539 58.8645 294.403C58.9878 294.759 59.2081 295.42 59.4812 296.305C60.1276 298.485 60.8686 300.626 61.7015 302.72C61.8653 302.981 61.9635 303.289 61.9853 303.61C62.0071 303.932 61.9515 304.253 61.8249 304.54C61.6266 304.882 61.3533 305.157 61.033 305.338C60.7126 305.518 60.3566 305.597 60.001 305.567ZM53.8336 283.28C52.7146 284.002 47.8511 287.185 46.785 289.31C46.0714 290.662 47.4106 292.095 49.3754 293.976C50.0029 294.54 50.5921 295.159 51.1375 295.827C52.0662 297.174 52.8944 298.609 53.6133 300.118C54.1651 301.285 54.8049 302.394 55.5252 303.432C56.4944 304.551 59.0495 304.551 60.0627 304.551C60.2584 304.573 60.4559 304.543 60.6395 304.462C60.823 304.38 60.9876 304.251 61.12 304.083C61.158 303.95 61.1675 303.808 61.1475 303.67C61.1276 303.532 61.0788 303.401 61.0055 303.29C60.1401 301.143 59.3754 298.943 58.7147 296.701C58.4504 295.857 58.2301 295.176 58.1067 294.83C57.6838 293.6 57.4724 287.52 57.4283 286.015L53.8336 283.28Z" fill="#263238"/>
<path d="M51.4455 293.997C49.9979 291.965 48.6479 289.844 47.4014 287.642C46.9958 288.052 46.6402 288.524 46.3441 289.045C45.0225 291.587 49.2076 294.129 50.7495 296.162C52.2913 298.196 54.0535 302.517 55.1548 303.788C56.2561 305.059 58.8993 305.059 60.0007 305.059C61.102 305.059 61.9831 304.296 61.3223 303.025C55.0755 302.761 54.0446 297.565 51.4455 293.997Z" fill="#263238"/>
<path d="M76.9614 174.661C76.9614 174.661 76.8204 175.128 76.6089 175.931C75.5781 179.704 72.7499 190.807 73.6574 194.996C74.7587 200.079 84.1773 211.142 89.2963 217.059C94.0981 222.6 109.341 230.836 109.341 230.836C109.341 230.836 102.733 251.171 101.191 256.001C99.6489 260.83 94.1422 277.861 94.1422 277.861L98.5475 280.911C98.5475 280.911 116.83 251.679 120.574 245.833C124.319 239.987 128.742 231.446 127.403 228.803C115.411 205.244 101.191 192.454 101.191 192.454L102.733 185.591L76.9614 174.661Z" fill="#263238"/>
<path d="M98.5472 281.419C98.4665 281.421 98.387 281.397 98.3181 281.348L93.9128 278.298C93.8241 278.238 93.7568 278.144 93.7229 278.032C93.689 277.92 93.6907 277.798 93.7278 277.688C93.7278 277.688 99.2344 260.657 100.776 255.828C102.177 251.446 107.825 234.09 108.785 231.1C106.371 229.779 93.4282 222.539 88.9876 217.415C82.2034 209.586 74.2826 199.978 73.2253 195.118C72.3442 190.878 74.9874 180.181 76.1857 175.799L76.5381 174.518C76.5793 174.39 76.6612 174.284 76.7672 174.223C76.8213 174.196 76.8798 174.181 76.939 174.181C76.9982 174.181 77.0567 174.196 77.1108 174.223L102.882 185.153C102.985 185.197 103.071 185.284 103.121 185.397C103.172 185.51 103.184 185.641 103.155 185.763L101.684 192.301C112.074 202.635 120.894 214.9 127.781 228.589C129.64 232.239 122.398 243.84 120.926 246.179C117.226 251.954 99.0846 280.962 98.8996 281.247C98.8568 281.305 98.8026 281.352 98.7413 281.382C98.6801 281.412 98.6136 281.425 98.5472 281.419ZM94.6793 277.647L98.4239 280.24C100.582 276.783 116.75 250.947 120.221 245.528C124.424 238.97 128.151 231.202 127.023 229.057C115.208 205.854 101.023 192.982 100.917 192.84C100.848 192.78 100.796 192.698 100.768 192.604C100.739 192.51 100.736 192.408 100.759 192.311L102.204 185.896L77.2342 175.321C77.1813 175.525 77.1108 175.779 77.0227 176.084C76.1416 179.46 73.1901 190.766 74.0799 194.874C75.2077 200.079 85.6748 212.158 89.6044 216.693C94.3004 222.112 109.376 230.297 109.525 230.378C109.627 230.432 109.707 230.528 109.749 230.647C109.792 230.766 109.793 230.899 109.754 231.019C109.684 231.222 103.129 251.405 101.605 256.173C100.195 260.566 95.5163 275.055 94.6793 277.647Z" fill="#263238"/>
<mask id="mask4_8_5068" style="mask-type:luminance" maskUnits="userSpaceOnUse" x="73" y="174" width="55" height="107">
<mask id="mask5_8_5068" style="mask-type:luminance" maskUnits="userSpaceOnUse" x="73" y="174" width="55" height="107">
<path d="M76.9614 174.661C76.9614 174.661 76.8204 175.128 76.6089 175.931C75.5781 179.704 72.7499 190.807 73.6574 194.996C74.7587 200.079 84.1773 211.142 89.2963 217.059C94.0981 222.6 109.341 230.836 109.341 230.836C109.341 230.836 102.733 251.171 101.191 256.001C99.6489 260.83 94.1422 277.861 94.1422 277.861L98.5475 280.911C98.5475 280.911 116.83 251.679 120.574 245.833C124.319 239.987 128.742 231.446 127.403 228.803C115.411 205.244 101.191 192.454 101.191 192.454L102.733 185.591L76.9614 174.661Z" fill="white"/>
</mask>
<g mask="url(#mask5_8_5068)">
<path d="M98.5472 281.42C98.4665 281.422 98.387 281.397 98.3181 281.348L93.9128 278.298C93.8241 278.238 93.7568 278.144 93.7229 278.032C93.689 277.921 93.6907 277.799 93.7278 277.688C93.7278 277.688 99.2344 260.658 100.776 255.828C102.177 251.446 107.825 234.09 108.785 231.101C106.371 229.779 93.4282 222.54 88.9876 217.415C82.2034 209.586 74.2826 199.978 73.2253 195.118C72.3442 190.878 74.9874 180.182 76.1857 175.799L76.5381 174.518C76.5793 174.39 76.6612 174.285 76.7672 174.224C76.8213 174.196 76.8798 174.181 76.939 174.181C76.9982 174.181 77.0567 174.196 77.1108 174.224L102.882 185.154C102.985 185.197 103.071 185.284 103.121 185.397C103.172 185.51 103.184 185.641 103.155 185.764L101.684 192.301C112.074 202.635 120.894 214.9 127.781 228.589C129.64 232.239 122.398 243.84 120.926 246.179C117.226 251.954 99.0846 280.962 98.8996 281.247C98.8568 281.306 98.8026 281.352 98.7413 281.382C98.6801 281.412 98.6136 281.425 98.5472 281.42ZM94.6793 277.647L98.4239 280.24C100.582 276.783 116.75 250.948 120.221 245.528C124.424 238.97 128.151 231.202 127.023 229.057C115.208 205.855 101.023 192.983 100.917 192.84C100.848 192.781 100.796 192.698 100.768 192.604C100.739 192.51 100.736 192.408 100.759 192.312L102.204 185.896L77.2342 175.322C77.1813 175.525 77.1108 175.779 77.0227 176.084C76.1416 179.46 73.1901 190.766 74.0799 194.874C75.2077 200.08 85.6748 212.159 89.6044 216.693C94.3004 222.113 109.376 230.297 109.525 230.379C109.627 230.432 109.707 230.528 109.749 230.647C109.792 230.766 109.793 230.899 109.754 231.019C109.684 231.223 103.129 251.405 101.605 256.174C100.195 260.566 95.5163 275.055 94.6793 277.647Z" fill="white"/>
</g>
</mask>
<g mask="url(#mask4_8_5068)">
<path opacity="0.2" d="M101.19 192.454L101.445 191.284L96.4321 188.641C96.4321 188.641 92.0708 186.882 90.3263 187.126C88.5818 187.37 87.6831 193.165 90.5466 196.439C93.41 199.713 114.52 210.775 113.216 211.019C111.912 211.264 97.5246 210.003 99.9211 211.528C102.318 213.053 119.102 214.792 118.23 216.307C117.357 217.822 115.587 218.574 118.009 219.825C120.432 221.075 126.151 227.959 127.622 230.328C127.679 229.805 127.603 229.275 127.402 228.802C115.41 205.244 101.19 192.454 101.19 192.454Z" fill="white"/>
</g>
<path d="M98.4328 190.339C98.3618 190.339 98.2919 190.318 98.2302 190.278C95.261 188.448 91.1816 186.211 90.3887 185.753C89.0331 186.07 87.6945 186.477 86.3798 186.973C86.271 187.021 86.1505 187.017 86.0437 186.964C85.9369 186.911 85.8521 186.812 85.8071 186.689C85.7662 186.563 85.769 186.424 85.815 186.301C85.861 186.178 85.9466 186.08 86.0538 186.028C87.4621 185.5 88.8945 185.062 90.3446 184.716C90.4361 184.681 90.5351 184.681 90.6266 184.716C90.6794 184.716 95.3403 187.309 98.6443 189.342C98.7308 189.396 98.7991 189.482 98.8386 189.586C98.878 189.69 98.8862 189.806 98.8619 189.916C98.8376 190.025 98.7822 190.123 98.7044 190.192C98.6267 190.261 98.5311 190.299 98.4328 190.298V190.339Z" fill="white"/>
<path d="M82.6619 185.469C82.5451 185.489 82.4261 185.455 82.3311 185.374C82.2361 185.293 82.1728 185.171 82.1553 185.037C82.1378 184.902 82.1674 184.764 82.2376 184.655C82.3078 184.545 82.4129 184.472 82.5298 184.452C85.2508 183.575 88.0802 183.231 90.8999 183.435C91.0168 183.435 91.1288 183.489 91.2114 183.584C91.294 183.679 91.3405 183.809 91.3405 183.944C91.3405 184.078 91.294 184.208 91.2114 184.303C91.1288 184.398 91.0168 184.452 90.8999 184.452C88.1825 184.275 85.4584 184.619 82.8381 185.469C82.7803 185.486 82.7198 185.486 82.6619 185.469Z" fill="white"/>
<path d="M98.5466 280.911L101.63 288.791C101.63 288.791 107.798 292.349 107.798 293.366C107.798 294.383 106.476 294.637 106.476 294.637H97.6655C96.5642 294.637 93.7007 291.333 91.0575 289.553C88.4143 287.774 87.313 287.011 87.5333 284.724C87.7535 282.436 94.1413 277.861 94.1413 277.861L98.5466 280.911Z" fill="white"/>
<path d="M97.6658 295.146C96.9258 295.146 95.9037 294.271 94.1856 292.736C93.1215 291.739 92.0032 290.822 90.8376 289.991C88.1944 288.201 86.8375 287.306 87.093 284.663C87.3309 282.202 93.2605 277.912 93.9037 277.434C93.9724 277.384 94.0517 277.358 94.1328 277.358C94.2138 277.358 94.2932 277.384 94.3618 277.434L98.7672 280.484C98.8453 280.535 98.9072 280.613 98.9434 280.708L101.965 288.425C106.124 290.835 108.239 292.492 108.239 293.376C108.239 294.515 107.173 295.024 106.547 295.146H97.6658ZM94.1416 278.461C91.7363 280.209 88.1063 283.341 87.9741 284.785C87.7979 286.676 88.5732 287.286 91.2869 289.116C92.4865 289.974 93.6399 290.914 94.7407 291.933C95.8949 292.949 97.1989 294.129 97.6747 294.129H106.485C106.485 294.129 107.366 293.905 107.366 293.366C107.146 292.827 104.115 290.784 101.437 289.248C101.348 289.194 101.277 289.109 101.234 289.004L98.2033 281.297L94.1416 278.461Z" fill="#263238"/>
<path d="M93.8153 287.093C92.1714 285.401 90.2341 284.133 88.1324 283.372C87.8338 283.754 87.6272 284.221 87.5333 284.724C87.313 287.012 88.4143 287.774 91.0575 289.553C93.7007 291.333 96.5642 294.637 97.6655 294.637H106.476C106.476 294.637 107.798 294.383 107.798 293.366C107.798 293.366 107.798 293.305 107.798 293.275C105.213 293.112 102.641 292.752 100.097 292.197C94.8549 290.987 96.6788 290.092 93.8153 287.093Z" fill="#263238"/>
<path d="M104.768 117.906C100.611 118.791 96.7497 120.991 93.6133 124.26C88.9436 129.476 85.8423 136.817 85.5603 140.244C85.2784 143.67 81.2695 160.152 79.7629 163.558C78.2563 166.964 74.8025 172.78 77.0756 176.104C78.221 177.772 101.094 186.536 103.358 186.536C105.622 186.536 106.327 184.096 106.609 182.632C106.891 181.168 109.71 167.787 111.975 162.897C114.239 158.006 119.323 154.763 119.904 143.334C120.266 136.59 118.837 129.88 115.807 124.098C115.807 124.098 109.146 117.743 104.768 117.906Z" fill="white"/>
<path d="M103.358 187.045C101.137 187.045 78.0446 178.341 76.7318 176.42C74.6084 173.308 76.9344 168.458 78.6261 164.91C78.908 164.33 79.1635 163.802 79.375 163.324C80.8552 159.979 84.8464 143.487 85.1195 140.193C85.4279 136.39 88.7936 128.937 93.3047 123.925C96.503 120.57 100.453 118.319 104.706 117.428H104.759C109.261 117.245 115.798 123.477 116.071 123.742C116.102 123.771 116.129 123.805 116.151 123.843C119.253 129.71 120.711 136.537 120.327 143.395C119.913 151.774 117.032 155.942 114.723 159.297C113.839 160.506 113.049 161.803 112.362 163.171C110.195 167.869 107.455 180.619 107.076 182.764C106.485 185.601 105.243 187.045 103.358 187.045ZM104.811 118.414C104.371 118.495 98.2739 119.746 93.9126 124.626C89.1548 129.954 86.2561 137.153 85.983 140.284C85.701 143.741 81.7098 160.274 80.1503 163.781C79.93 164.269 79.6745 164.798 79.3926 165.398C77.8155 168.692 75.6569 173.217 77.419 175.789C78.397 177.131 100.935 186.028 103.349 186.028C104.794 186.028 105.71 184.879 106.168 182.52C106.582 180.344 109.358 167.452 111.578 162.663C112.285 161.224 113.105 159.862 114.027 158.596C116.38 155.19 119.041 151.316 119.437 143.263C119.773 136.658 118.386 130.089 115.455 124.403C114.856 123.874 108.785 118.241 104.811 118.414Z" fill="#263238"/>
<mask id="mask6_8_5068" style="mask-type:luminance" maskUnits="userSpaceOnUse" x="76" y="117" width="44" height="70">
<mask id="mask7_8_5068" style="mask-type:luminance" maskUnits="userSpaceOnUse" x="76" y="117" width="44" height="70">
<path d="M104.768 117.906C100.611 118.791 96.7497 120.991 93.6133 124.26C88.9436 129.476 85.8423 136.817 85.5603 140.244C85.2784 143.67 81.2695 160.152 79.7629 163.558C78.2563 166.964 74.8025 172.78 77.0756 176.104C78.221 177.772 101.094 186.536 103.358 186.536C105.622 186.536 106.327 184.096 106.609 182.632C106.891 181.168 109.71 167.787 111.975 162.897C114.239 158.006 119.323 154.763 119.904 143.334C120.266 136.59 118.837 129.88 115.807 124.098C115.807 124.098 109.146 117.743 104.768 117.906Z" fill="white"/>
</mask>
<g mask="url(#mask7_8_5068)">
<path d="M103.358 187.045C101.137 187.045 78.0446 178.341 76.7318 176.42C74.6084 173.308 76.9344 168.458 78.6261 164.91C78.908 164.33 79.1635 163.802 79.375 163.324C80.8552 159.979 84.8464 143.487 85.1195 140.193C85.4279 136.39 88.7936 128.937 93.3047 123.925C96.503 120.57 100.453 118.319 104.706 117.428H104.759C109.261 117.245 115.798 123.477 116.071 123.742C116.102 123.771 116.129 123.805 116.151 123.843C119.253 129.71 120.711 136.537 120.327 143.395C119.913 151.773 117.032 155.942 114.723 159.297C113.839 160.506 113.049 161.803 112.362 163.171C110.195 167.869 107.455 180.619 107.076 182.764C106.485 185.601 105.243 187.045 103.358 187.045ZM104.811 118.414C104.371 118.495 98.2739 119.746 93.9126 124.626C89.1548 129.954 86.2561 137.153 85.983 140.284C85.701 143.741 81.7098 160.274 80.1503 163.781C79.93 164.269 79.6745 164.798 79.3926 165.398C77.8155 168.692 75.6569 173.217 77.419 175.789C78.397 177.131 100.935 186.028 103.349 186.028C104.794 186.028 105.71 184.879 106.168 182.52C106.582 180.344 109.358 167.452 111.578 162.663C112.285 161.224 113.105 159.862 114.027 158.596C116.38 155.19 119.041 151.316 119.437 143.263C119.773 136.658 118.386 130.089 115.455 124.403C114.856 123.874 108.785 118.241 104.811 118.414Z" fill="white"/>
</g>
</mask>
<g mask="url(#mask6_8_5068)">
<path d="M97.7279 153.583C104.16 150.401 108.072 150.401 112.204 149.333C116.336 148.266 104.389 148.54 101.86 147.219C99.3314 145.897 109.446 144.3 111.975 143.497C114.503 142.694 106.23 144.036 101.402 144.036C96.5737 144.036 90.8291 132.099 95.8864 126.751C100.944 121.403 109.217 120.915 109.217 120.915L109.023 119.105C107.701 118.335 106.248 117.912 104.768 117.865C100.611 118.75 96.7497 120.95 93.6133 124.22C88.9436 129.436 85.8423 136.776 85.5603 140.203C85.2784 143.629 81.2695 160.111 79.7629 163.517C78.2563 166.923 74.8025 172.739 77.0756 176.064C78.221 177.731 101.094 186.496 103.358 186.496C103.713 186.495 104.066 186.419 104.398 186.272C100.565 184.238 93.4811 181.107 91.0582 179.795C87.6132 177.935 99.7896 175.027 102.318 171.305C104.847 167.584 93.3578 173.166 90.1419 173.43C86.926 173.695 85.5427 171.844 88.9877 170.777C92.4326 169.709 101.631 162.022 105.728 159.104C109.825 156.186 89.8687 164.94 86.6528 164.412C83.4369 163.883 91.3313 156.766 97.7279 153.583Z" fill="#96ABC6"/>
<path opacity="0.5" d="M97.7279 153.583C104.16 150.401 108.072 150.401 112.204 149.333C116.336 148.266 104.389 148.54 101.86 147.219C99.3314 145.897 109.446 144.3 111.975 143.497C114.503 142.694 106.23 144.036 101.402 144.036C96.5737 144.036 90.8291 132.099 95.8864 126.751C100.944 121.403 109.217 120.915 109.217 120.915L109.023 119.105C107.701 118.335 106.248 117.912 104.768 117.865C100.611 118.75 96.7497 120.95 93.6133 124.22C88.9436 129.436 85.8423 136.776 85.5603 140.203C85.2784 143.629 81.2695 160.111 79.7629 163.517C78.2563 166.923 74.8025 172.739 77.0756 176.064C78.221 177.731 101.094 186.496 103.358 186.496C103.713 186.495 104.066 186.419 104.398 186.272C100.565 184.238 93.4811 181.107 91.0582 179.795C87.6132 177.935 99.7896 175.027 102.318 171.305C104.847 167.584 93.3578 173.166 90.1419 173.43C86.926 173.695 85.5427 171.844 88.9877 170.777C92.4326 169.709 101.631 162.022 105.728 159.104C109.825 156.186 89.8687 164.94 86.6528 164.412C83.4369 163.883 91.3313 156.766 97.7279 153.583Z" fill="white"/>
</g>
<path d="M107.288 146.873C104.759 146.888 102.237 146.564 99.7723 145.907C99.6605 145.871 99.5654 145.786 99.5077 145.67C99.4499 145.554 99.4342 145.416 99.4639 145.287C99.4773 145.222 99.5017 145.161 99.5356 145.108C99.5696 145.055 99.6124 145.01 99.6616 144.975C99.7109 144.941 99.7655 144.919 99.8223 144.91C99.8791 144.9 99.937 144.904 99.9926 144.921C104.394 146.052 108.95 146.125 113.376 145.134C113.433 145.121 113.491 145.12 113.548 145.133C113.605 145.146 113.659 145.171 113.707 145.208C113.755 145.245 113.797 145.292 113.829 145.348C113.862 145.403 113.884 145.465 113.896 145.531C113.909 145.595 113.91 145.663 113.9 145.728C113.89 145.794 113.869 145.856 113.838 145.912C113.807 145.968 113.766 146.016 113.719 146.054C113.671 146.091 113.617 146.117 113.561 146.13C111.499 146.633 109.396 146.881 107.288 146.873Z" fill="#263238"/>
<path d="M109.314 151.367C104.749 150.729 100.333 149.079 96.3099 146.507C96.2537 146.477 96.2035 146.435 96.1625 146.382C96.1215 146.329 96.0906 146.266 96.0718 146.199C96.053 146.131 96.0467 146.059 96.0534 145.989C96.06 145.918 96.0795 145.849 96.1105 145.788C96.1414 145.727 96.1833 145.673 96.2332 145.632C96.2832 145.59 96.3402 145.561 96.4005 145.546C96.4608 145.531 96.5231 145.531 96.5834 145.546C96.6437 145.561 96.7006 145.591 96.7504 145.632C96.8121 145.632 102.971 149.699 109.394 150.35C109.511 150.357 109.62 150.417 109.699 150.517C109.777 150.617 109.818 150.749 109.812 150.884C109.806 151.019 109.754 151.145 109.668 151.236C109.581 151.326 109.467 151.374 109.35 151.367H109.314Z" fill="#263238"/>
<path d="M106.592 161.951C106.516 161.95 106.442 161.927 106.376 161.884C106.31 161.842 106.254 161.781 106.213 161.707C106.183 161.65 106.163 161.586 106.154 161.52C106.145 161.453 106.147 161.386 106.161 161.32C106.175 161.255 106.2 161.194 106.235 161.14C106.269 161.086 106.313 161.04 106.363 161.006C107.564 160.17 108.723 159.257 109.834 158.271C109.928 158.188 110.046 158.151 110.163 158.168C110.28 158.186 110.387 158.255 110.46 158.362C110.529 158.47 110.559 158.604 110.544 158.736C110.529 158.869 110.471 158.99 110.381 159.074C109.251 160.073 108.074 161 106.856 161.85C106.78 161.916 106.687 161.951 106.592 161.951Z" fill="#263238"/>
<path d="M84.1951 173.014C84.0783 173.034 83.9593 173 83.8643 172.919C83.7693 172.837 83.706 172.716 83.6885 172.581C83.671 172.447 83.7006 172.309 83.7708 172.2C83.8411 172.09 83.9461 172.017 84.063 171.997C90.6137 169.645 96.9849 166.673 103.112 163.11C103.216 163.047 103.337 163.034 103.45 163.074C103.562 163.114 103.656 163.204 103.711 163.324C103.766 163.444 103.777 163.584 103.742 163.714C103.708 163.843 103.63 163.952 103.526 164.015C97.356 167.616 90.9337 170.609 84.3273 172.963C84.2866 172.99 84.2417 173.007 84.1951 173.014Z" fill="#263238"/>
<path d="M80.0805 174.437C79.9848 174.439 79.8914 174.404 79.8148 174.337C79.7383 174.271 79.683 174.177 79.6576 174.071C79.6415 174.006 79.6368 173.938 79.6437 173.872C79.6505 173.805 79.6688 173.74 79.6975 173.681C79.7262 173.623 79.7647 173.571 79.8108 173.53C79.8569 173.489 79.9096 173.458 79.966 173.441C79.966 173.441 80.4594 173.288 81.3228 172.993C81.3807 172.974 81.4412 172.968 81.5011 172.975C81.561 172.983 81.619 173.004 81.6717 173.038C81.7245 173.071 81.771 173.117 81.8087 173.171C81.8463 173.225 81.8743 173.287 81.8911 173.354C81.9079 173.421 81.9131 173.491 81.9064 173.56C81.8998 173.629 81.8814 173.696 81.8524 173.757C81.8234 173.818 81.7842 173.871 81.7372 173.915C81.6901 173.958 81.6362 173.991 81.5783 174.01L80.195 174.478L80.0805 174.437Z" fill="#263238"/>
<path d="M84.0455 176.836C83.9286 176.861 83.8082 176.83 83.7107 176.752C83.6133 176.674 83.5467 176.554 83.5256 176.42C83.5046 176.285 83.5309 176.146 83.5986 176.033C83.6663 175.921 83.77 175.844 83.8869 175.82C88.3744 173.857 92.7657 171.614 97.0412 169.099C97.092 169.067 97.1477 169.048 97.2051 169.041C97.2625 169.035 97.3204 169.042 97.3754 169.062C97.4304 169.082 97.4815 169.114 97.5254 169.157C97.5694 169.2 97.6055 169.253 97.6315 169.312C97.6592 169.37 97.6767 169.434 97.6828 169.5C97.689 169.566 97.6837 169.632 97.6672 169.696C97.6508 169.759 97.6237 169.818 97.5873 169.869C97.5509 169.921 97.506 169.963 97.4553 169.994C93.1571 172.523 88.7456 174.787 84.2393 176.775C84.1795 176.812 84.1132 176.833 84.0455 176.836Z" fill="#263238"/>
<path d="M114.521 127.595C114.521 127.595 117.041 135.617 118.927 136.339C120.812 137.061 129.35 133.787 130.292 129.059C131.235 124.331 117.957 116.665 114.512 114.825C111.067 112.984 99.9924 112.273 93.6751 111.185C87.3579 110.097 81.675 106.101 77.8952 104.993C74.1154 103.884 63.6836 105.725 63.6836 105.725L70.9436 111.185C70.9436 111.185 82.6266 114.459 87.0495 114.459C91.4725 114.459 95.2523 112.273 101.252 114.459C107.252 116.645 114.83 118.831 119.561 121.383C124.292 123.935 128.081 125.389 128.081 128.673C128.081 131.957 123.05 134.885 122.098 134.885C121.147 134.885 118.935 126.141 116.416 125.409C116.416 125.409 113.252 123.589 114.521 127.595Z" fill="#263238"/>
<path d="M119.632 136.919C119.352 136.926 119.073 136.885 118.804 136.797C116.76 136.014 114.398 128.581 114.108 127.737C113.649 126.294 113.676 125.338 114.187 124.809C114.909 124.067 116.222 124.708 116.566 124.901C118.275 125.45 119.694 128.846 120.839 131.571C121.191 132.545 121.634 133.473 122.161 134.336C123.042 134.214 127.65 131.479 127.65 128.663C127.65 126.162 125.006 124.758 121.262 122.827C120.663 122.511 120.028 122.186 119.385 121.81C115.223 119.815 110.949 118.147 106.592 116.818C104.715 116.177 102.856 115.547 101.129 114.916C97.1822 113.483 94.2042 113.981 91.3319 114.469C89.9196 114.747 88.4912 114.903 87.0588 114.937C82.6534 114.937 71.3317 111.785 70.8471 111.652L70.715 111.581L63.455 106.111C63.3811 106.054 63.3239 105.973 63.2907 105.878C63.2576 105.783 63.25 105.679 63.2691 105.579C63.2881 105.479 63.3329 105.388 63.3975 105.318C63.4621 105.248 63.5435 105.202 63.6312 105.186C64.0541 105.115 74.204 103.366 78.0102 104.464C79.7722 105.063 81.4947 105.807 83.1644 106.691C86.5291 108.521 90.0819 109.85 93.7373 110.646C95.7461 111.002 98.2043 111.307 100.786 111.663C106.416 112.364 112.24 113.086 114.663 114.367C116.425 115.282 131.817 123.518 130.698 129.151C130.222 131.53 128.117 133.33 126.434 134.428C124.35 135.817 122.029 136.667 119.632 136.919ZM114.936 127.392C115.878 130.442 117.843 135.353 119.077 135.831C120.167 135.952 121.267 135.785 122.293 135.343H122.099C121.473 135.343 121.042 134.377 120.046 131.998C119.05 129.618 117.632 126.233 116.31 125.897H116.213C115.773 125.643 114.997 125.399 114.768 125.633C114.715 125.633 114.486 126.019 114.936 127.453V127.392ZM95.9047 112.974C97.7693 112.978 99.6217 113.321 101.394 113.991C103.156 114.611 104.962 115.242 106.839 115.882C111.517 117.458 116.354 119.095 119.755 120.966L121.623 121.983C125.482 124.016 128.531 125.582 128.531 128.744C128.531 131.459 125.57 133.889 123.588 134.916C124.432 134.551 125.251 134.112 126.037 133.604C128.196 132.211 129.561 130.554 129.87 128.988C130.592 125.379 120.724 118.709 114.337 115.364C112.037 114.154 106.028 113.401 100.724 112.74C98.0809 112.415 95.6404 112.11 93.6227 111.724C89.887 110.903 86.2572 109.536 82.8208 107.657C81.1911 106.793 79.5098 106.066 77.7899 105.481C74.8736 104.637 67.7281 105.603 64.9175 106.04L71.085 110.707C72.0806 110.992 82.8737 113.95 87.0147 113.95C88.4057 113.913 89.7926 113.76 91.1645 113.493C92.7317 113.192 94.3162 113.029 95.9047 113.005V112.974Z" fill="#263238"/>
<path d="M122.292 87.7385C122.292 87.7385 125.817 92.4664 125.817 93.2899C125.817 94.1135 125.958 95.2421 125.958 95.7302C125.958 96.2182 130.909 98.7804 130.909 99.7972C130.909 100.814 127.658 103.061 127.658 103.061V112.212C127.658 114.001 126.777 114.489 125.253 115.14C123.728 115.791 120.028 114.977 120.028 114.977L115.79 124.128L106.327 115.994L108.971 109.314L108.09 107.362C108.09 107.362 103.429 104.312 104.415 99.2278C105.402 94.144 109.076 93.5238 110.213 91.5615C111.349 89.5991 113.173 85.2068 114.874 84.5561C116.574 83.9053 122.292 87.7385 122.292 87.7385Z" fill="white"/>
<path d="M115.79 124.606C115.695 124.608 115.601 124.572 115.526 124.504L106.063 116.37C105.982 116.301 105.923 116.202 105.897 116.089C105.872 115.976 105.881 115.856 105.922 115.75L108.521 109.294L107.825 107.687C107.077 107.138 103.103 103.946 104.054 99.0652C104.759 95.5065 106.698 93.9814 108.24 92.8325C108.879 92.4214 109.447 91.8766 109.914 91.226C110.178 90.7786 110.477 90.2093 110.795 89.5484C111.931 87.3319 113.341 84.5765 114.795 84.0172C116.557 83.336 121.535 86.6506 122.504 87.3319C122.547 87.3539 122.583 87.3891 122.61 87.4335C123.975 89.2535 126.249 92.4359 126.249 93.3103C126.249 93.7374 126.293 94.3271 126.337 94.7745C126.337 95.0897 126.337 95.3744 126.39 95.5879C126.914 96.0084 127.458 96.3954 128.02 96.747C130.275 98.2518 131.341 99.0448 131.341 99.7972C131.341 100.814 129.394 102.41 128.09 103.346V112.191C128.09 114.306 127.024 114.916 125.394 115.598C124.011 116.177 121.209 115.709 120.257 115.526L116.169 124.331C116.14 124.396 116.098 124.452 116.048 124.496C115.998 124.54 115.94 124.57 115.878 124.586L115.79 124.606ZM106.874 115.791L115.685 123.335L119.685 114.733C119.727 114.637 119.795 114.559 119.88 114.511C119.964 114.463 120.059 114.448 120.152 114.469C121.147 114.693 123.967 115.15 125.147 114.652C126.68 114.011 127.262 113.635 127.262 112.202V103.051C127.261 102.963 127.281 102.877 127.318 102.8C127.355 102.723 127.408 102.659 127.473 102.614C129.024 101.526 130.451 100.194 130.513 99.7769C129.623 98.9286 128.657 98.1923 127.632 97.5807C125.958 96.4724 125.561 96.1878 125.561 95.7099C125.561 95.5065 125.561 95.1913 125.508 94.8253C125.456 94.4593 125.42 93.7475 125.42 93.2697C124.446 91.4267 123.316 89.6999 122.046 88.1147C119.914 86.6506 116.213 84.5256 115.13 84.9425C114.046 85.3593 112.61 88.0639 111.605 90.0262C111.27 90.6871 110.962 91.287 110.724 91.7547C110.2 92.5199 109.55 93.159 108.812 93.6357C107.314 94.7846 105.614 96.0861 104.997 99.2482C104.116 103.885 108.416 106.813 108.46 106.843C108.535 106.893 108.596 106.967 108.636 107.057L109.517 109.019C109.545 109.087 109.56 109.162 109.56 109.238C109.56 109.313 109.545 109.388 109.517 109.456L106.874 115.791Z" fill="#263238"/>
<mask id="mask8_8_5068" style="mask-type:luminance" maskUnits="userSpaceOnUse" x="104" y="84" width="27" height="41">
<mask id="mask9_8_5068" style="mask-type:luminance" maskUnits="userSpaceOnUse" x="104" y="84" width="27" height="41">
<path d="M122.292 87.7385C122.292 87.7385 125.817 92.4664 125.817 93.2899C125.817 94.1135 125.958 95.2421 125.958 95.7302C125.958 96.2182 130.909 98.7804 130.909 99.7972C130.909 100.814 127.658 103.061 127.658 103.061V112.212C127.658 114.001 126.777 114.489 125.253 115.14C123.728 115.791 120.028 114.977 120.028 114.977L115.79 124.128L106.327 115.994L108.971 109.314L108.09 107.362C108.09 107.362 103.429 104.312 104.415 99.2278C105.402 94.144 109.076 93.5238 110.213 91.5615C111.349 89.5991 113.173 85.2068 114.874 84.5561C116.574 83.9053 122.292 87.7385 122.292 87.7385Z" fill="white"/>
</mask>
<g mask="url(#mask9_8_5068)">
<path d="M115.79 124.606C115.695 124.608 115.601 124.572 115.526 124.504L106.063 116.37C105.982 116.301 105.923 116.202 105.897 116.089C105.872 115.976 105.881 115.856 105.922 115.75L108.521 109.294L107.825 107.687C107.077 107.138 103.103 103.946 104.054 99.0651C104.759 95.5065 106.698 93.9813 108.24 92.8324C108.879 92.4213 109.447 91.8766 109.914 91.2259C110.178 90.7786 110.477 90.2092 110.795 89.5483C111.931 87.3318 113.341 84.5764 114.795 84.0172C116.557 83.336 121.535 86.6506 122.504 87.3318C122.547 87.3539 122.583 87.3891 122.61 87.4335C123.975 89.2534 126.249 92.4359 126.249 93.3103C126.249 93.7373 126.293 94.327 126.337 94.7744C126.337 95.0896 126.337 95.3743 126.39 95.5878C126.914 96.0084 127.458 96.3953 128.02 96.7469C130.275 98.2517 131.341 99.0448 131.341 99.7972C131.341 100.814 129.394 102.41 128.09 103.346V112.191C128.09 114.306 127.024 114.916 125.394 115.597C124.011 116.177 121.209 115.709 120.257 115.526L116.169 124.331C116.14 124.396 116.098 124.452 116.048 124.496C115.998 124.54 115.94 124.57 115.878 124.586L115.79 124.606ZM106.874 115.791L115.685 123.335L119.685 114.733C119.727 114.637 119.795 114.559 119.88 114.511C119.964 114.463 120.059 114.448 120.152 114.469C121.147 114.693 123.967 115.15 125.147 114.652C126.68 114.011 127.262 113.635 127.262 112.202V103.051C127.261 102.963 127.281 102.877 127.318 102.8C127.355 102.723 127.408 102.659 127.473 102.614C129.024 101.526 130.451 100.194 130.513 99.7768C129.623 98.9285 128.657 98.1923 127.632 97.5806C125.958 96.4724 125.561 96.1877 125.561 95.7098C125.561 95.5065 125.561 95.1913 125.508 94.8252C125.456 94.4592 125.42 93.7475 125.42 93.2696C124.446 91.4266 123.316 89.6999 122.046 88.1147C119.914 86.6506 116.213 84.5256 115.13 84.9424C114.046 85.3593 112.61 88.0638 111.605 90.0262C111.27 90.6871 110.962 91.287 110.724 91.7547C110.2 92.5199 109.55 93.1589 108.812 93.6356C107.314 94.7846 105.614 96.086 104.997 99.2481C104.116 103.884 108.416 106.813 108.46 106.843C108.535 106.893 108.596 106.967 108.636 107.057L109.517 109.019C109.545 109.087 109.56 109.162 109.56 109.238C109.56 109.313 109.545 109.388 109.517 109.456L106.874 115.791Z" fill="white"/>
</g>
</mask>
<g mask="url(#mask8_8_5068)">
<path d="M121.861 112.73C117.033 110.88 117.456 107.433 117.262 102.39C117.068 97.3466 113.359 89.66 113.359 89.66L111.333 89.4973C110.945 90.2599 110.584 90.9614 110.284 91.5308C109.148 93.4931 105.474 94.1439 104.487 99.1971C103.5 104.25 108.161 107.331 108.161 107.331L109.042 109.283L106.399 115.963L115.861 124.097L120.099 114.947C120.099 114.947 123.773 115.76 125.324 115.109C125.88 114.906 126.41 114.619 126.901 114.255C125.193 113.881 123.509 113.372 121.861 112.73Z" fill="#96ABC6"/>
<path opacity="0.5" d="M121.861 112.73C117.033 110.88 117.456 107.433 117.262 102.39C117.068 97.3466 113.359 89.66 113.359 89.66L111.333 89.4973C110.945 90.2599 110.584 90.9614 110.284 91.5308C109.148 93.4931 105.474 94.1439 104.487 99.1971C103.5 104.25 108.161 107.331 108.161 107.331L109.042 109.283L106.399 115.963L115.861 124.097L120.099 114.947C120.099 114.947 123.773 115.76 125.324 115.109C125.88 114.906 126.41 114.619 126.901 114.255C125.193 113.881 123.509 113.372 121.861 112.73Z" fill="white"/>
<path d="M120.593 95.2319C120.519 95.2294 120.446 95.2059 120.382 95.1634C120.318 95.121 120.264 95.0608 120.225 94.9884C120.185 94.916 120.162 94.8334 120.157 94.7482C120.152 94.663 120.166 94.5777 120.196 94.4998C120.549 93.8293 121.031 93.262 121.606 92.8425C122.813 91.8258 124.69 93.0866 124.769 93.1374C124.87 93.2072 124.943 93.3197 124.972 93.4509C125.002 93.582 124.986 93.7213 124.928 93.8389C124.899 93.8971 124.861 93.9481 124.815 93.989C124.77 94.0298 124.717 94.0597 124.662 94.0767C124.606 94.0938 124.547 94.0977 124.49 94.0883C124.433 94.0789 124.378 94.0564 124.328 94.022C123.923 93.7474 122.742 93.1577 122.126 93.6661C121.671 93.9978 121.284 94.4382 120.989 94.9574C120.951 95.0403 120.894 95.1096 120.824 95.158C120.754 95.2064 120.674 95.2319 120.593 95.2319Z" fill="#263238"/>
<path d="M124.55 97.8653H122.171C122.07 97.8677 121.972 97.8294 121.893 97.757C121.814 97.6846 121.76 97.5826 121.739 97.4687C121.717 97.3543 121.73 97.2345 121.777 97.1303C121.824 97.0262 121.901 96.9444 121.995 96.8994L124.25 95.7504C124.303 95.7237 124.361 95.7094 124.419 95.7082C124.477 95.7071 124.534 95.7191 124.588 95.7436C124.642 95.7682 124.692 95.8048 124.733 95.8513C124.775 95.8978 124.808 95.9534 124.832 96.0148C124.855 96.0762 124.867 96.1423 124.868 96.2093C124.869 96.2762 124.859 96.3428 124.837 96.4051C124.816 96.4674 124.785 96.5243 124.744 96.5724C124.704 96.6206 124.656 96.6591 124.603 96.6858L124.277 96.8485H124.567C124.684 96.8485 124.796 96.9021 124.879 96.9974C124.961 97.0928 125.008 97.2221 125.008 97.3569C125.008 97.4254 124.996 97.4932 124.973 97.5563C124.949 97.6193 124.915 97.6763 124.873 97.7238C124.83 97.7713 124.779 97.8083 124.724 97.8326C124.668 97.8569 124.609 97.868 124.55 97.8653Z" fill="#263238"/>
</g>
<path d="M112.116 99.8072C112.176 100.11 112.317 100.383 112.52 100.587C112.722 100.792 112.976 100.917 113.244 100.946C113.476 100.981 113.712 100.963 113.938 100.892C114.164 100.821 114.376 100.698 114.561 100.532C114.745 100.365 114.899 100.158 115.013 99.9214C115.128 99.6853 115.2 99.4252 115.226 99.1564C115.226 98.1397 114.098 96.0553 114.944 95.4046C115.79 94.7539 117.341 94.5912 117.059 92.7916C116.777 90.9919 115.226 91.4901 115.508 89.538C115.79 87.5858 121.015 87.5756 122.292 87.7383C123.57 87.901 123.561 84.8101 122.151 81.2209C120.742 77.6318 115.226 76.3304 114.098 77.7945C113.774 78.15 113.579 78.6347 113.552 79.1502C113.526 79.6657 113.671 80.1734 113.957 80.5702C113.957 80.5702 107.737 79.2688 107.032 80.5702C106.327 81.8717 107.032 82.5224 107.032 82.5224C107.032 82.5224 102.089 81.3836 98.6972 88.5619C95.3051 95.7402 99.684 103.366 102.089 105.399C104.495 107.433 108.16 109.314 110.988 108.175C113.816 107.036 109.57 103.091 109.288 101.159C109.006 99.2276 112.116 99.8072 112.116 99.8072Z" fill="#263238"/>
<path d="M109.155 108.968C106.054 108.968 102.873 106.62 101.834 105.765C99.3316 103.732 94.7853 95.8115 98.3095 88.318C100.953 82.6547 104.68 81.9633 106.301 81.9633C106.237 81.3764 106.362 80.7829 106.653 80.2959C107.34 79.0453 110.97 79.4926 113.182 79.8993C113.091 79.4691 113.097 79.0192 113.198 78.5922C113.3 78.1652 113.495 77.7752 113.763 77.4591C114.283 76.7881 115.42 76.544 116.874 76.7982C119.015 77.1643 121.605 78.6182 122.548 81.0076C123.693 83.9155 123.993 86.5997 123.297 87.708C123.18 87.9003 123.019 88.0522 122.833 88.1471C122.647 88.2421 122.441 88.2766 122.239 88.2469C120.477 88.0232 116.134 88.3079 115.94 89.6195C115.834 90.382 116.037 90.5549 116.442 90.9107C116.714 91.1115 116.948 91.3749 117.129 91.6845C117.309 91.9941 117.432 92.3434 117.49 92.7104C117.772 94.449 116.609 95.0387 115.852 95.4353C115.622 95.5444 115.4 95.6771 115.191 95.8318C114.909 96.0453 115.191 97.0417 115.376 97.7026C115.532 98.1689 115.63 98.6585 115.667 99.1566C115.656 99.4764 115.586 99.7899 115.461 100.076C115.337 100.362 115.16 100.613 114.944 100.814C114.708 101.061 114.428 101.246 114.124 101.357C113.82 101.467 113.498 101.501 113.182 101.454C112.879 101.413 112.591 101.282 112.345 101.073C112.1 100.865 111.905 100.586 111.781 100.265C111.117 100.097 110.423 100.197 109.816 100.55C109.766 100.613 109.731 100.69 109.715 100.774C109.7 100.859 109.704 100.946 109.728 101.027C109.992 101.855 110.38 102.622 110.874 103.295C111.755 104.708 112.636 106.172 112.327 107.362C112.227 107.664 112.067 107.933 111.858 108.149C111.65 108.365 111.4 108.52 111.129 108.602C110.494 108.851 109.826 108.974 109.155 108.968ZM106.222 82.9597C104.785 82.9597 101.543 83.5901 99.0849 88.8061C95.8073 95.7301 100.028 103.041 102.336 104.932C104.644 106.823 108.292 108.673 110.838 107.646C111.385 107.423 111.464 107.148 111.482 107.057C111.684 106.345 110.838 105.023 110.151 103.884C109.569 103.094 109.129 102.178 108.856 101.19C108.81 100.946 108.818 100.693 108.878 100.454C108.938 100.214 109.048 99.9955 109.2 99.8175C110.028 98.8821 111.975 99.2583 112.195 99.3091C112.283 99.3265 112.364 99.375 112.427 99.4478C112.491 99.5207 112.532 99.6143 112.548 99.7158C112.596 99.9113 112.694 100.085 112.829 100.216C112.964 100.346 113.13 100.427 113.305 100.448C113.497 100.469 113.69 100.444 113.874 100.376C114.057 100.308 114.226 100.197 114.371 100.051C114.489 99.9422 114.587 99.8066 114.658 99.6529C114.729 99.4991 114.772 99.3303 114.786 99.1566C114.739 98.7678 114.657 98.386 114.539 98.0178C114.239 96.9503 113.86 95.6285 114.697 94.9676C114.951 94.7876 115.216 94.6312 115.49 94.4999C116.371 94.0627 116.768 93.7881 116.627 92.8731C116.588 92.6318 116.504 92.4033 116.38 92.2032C116.257 92.0031 116.098 91.8362 115.913 91.714C115.57 91.5016 115.297 91.1639 115.138 90.7537C114.978 90.3434 114.941 89.8838 115.032 89.4466C115.438 86.6302 122.222 87.2199 122.292 87.2301C122.339 87.2394 122.387 87.2329 122.431 87.2112C122.475 87.1896 122.512 87.1537 122.539 87.1081C122.9 86.5285 122.874 84.3934 121.702 81.4244C120.9 79.3909 118.548 78.1098 116.697 77.7845C115.446 77.571 114.627 77.7845 114.38 78.1302C114.13 78.3932 113.977 78.7562 113.951 79.1453C113.925 79.5343 114.028 79.9203 114.239 80.2247C114.299 80.305 114.336 80.4045 114.346 80.51C114.355 80.6154 114.337 80.7217 114.292 80.8144C114.247 80.9043 114.178 80.976 114.096 81.0196C114.014 81.0633 113.923 81.0768 113.834 81.0584C110.671 80.3975 107.666 80.2857 107.358 80.8246C106.865 81.7396 107.261 82.1158 107.261 82.1158C107.338 82.187 107.392 82.2858 107.414 82.3963C107.436 82.5069 107.426 82.6229 107.385 82.7259C107.343 82.8291 107.273 82.9132 107.185 82.9648C107.097 83.0164 106.997 83.0325 106.9 83.0106C106.675 82.9724 106.448 82.9554 106.222 82.9597Z" fill="#263238"/>
<path d="M113.526 101.76C113.526 101.76 112.645 98.1806 110.425 97.8552C108.204 97.5298 106.9 100.458 108.16 103.234C109.42 106.01 112.116 107.962 112.962 107.636C113.808 107.311 114.24 105.511 114.24 105.511" fill="white"/>
<path d="M112.768 108.175C111.455 108.175 108.979 106.142 107.772 103.468C107.394 102.749 107.194 101.924 107.194 101.083C107.194 100.243 107.394 99.418 107.772 98.6992C108.059 98.2109 108.459 97.8254 108.926 97.5863C109.393 97.3473 109.909 97.2643 110.415 97.3469C112.935 97.7129 113.852 101.475 113.94 101.627C113.971 101.762 113.955 101.906 113.895 102.027C113.834 102.148 113.735 102.237 113.618 102.273C113.501 102.309 113.377 102.291 113.272 102.221C113.167 102.152 113.09 102.037 113.059 101.902C113.059 101.902 112.257 98.6382 110.318 98.3535C109.968 98.2862 109.608 98.3378 109.283 98.5021C108.958 98.6664 108.681 98.9362 108.486 99.2787C108.197 99.8404 108.045 100.481 108.045 101.134C108.045 101.787 108.197 102.428 108.486 102.99C109.728 105.684 112.213 107.352 112.759 107.148C113.305 106.945 113.64 105.877 113.746 105.379C113.776 105.244 113.852 105.129 113.956 105.058C114.06 104.988 114.184 104.968 114.301 105.003C114.418 105.038 114.518 105.125 114.579 105.245C114.64 105.366 114.657 105.509 114.627 105.644C114.574 105.857 114.107 107.677 113.067 108.114C112.971 108.152 112.87 108.173 112.768 108.175Z" fill="#263238"/>
<path d="M105.623 113.34L118.477 123.122L117.764 130.29L103.781 117.255L105.623 113.34Z" fill="white"/>
<path d="M117.764 130.818C117.664 130.822 117.566 130.782 117.49 130.706L103.508 117.672C103.428 117.596 103.373 117.491 103.352 117.375C103.331 117.258 103.346 117.137 103.393 117.031L105.235 113.116C105.263 113.054 105.302 112.999 105.35 112.955C105.398 112.912 105.453 112.88 105.512 112.863C105.571 112.846 105.633 112.843 105.693 112.855C105.753 112.867 105.81 112.894 105.86 112.933L118.715 122.684C118.783 122.737 118.837 122.811 118.871 122.897C118.905 122.983 118.918 123.078 118.909 123.172L118.204 130.289C118.195 130.381 118.164 130.467 118.116 130.54C118.068 130.614 118.004 130.671 117.931 130.706C117.882 130.756 117.825 130.793 117.764 130.818ZM104.345 117.143L117.42 129.344L118.001 123.406L105.781 114.103L104.345 117.143Z" fill="#263238"/>
<path d="M101.024 123.762L95.1734 127.127C93.9222 127.859 68.2215 136.278 67.1818 137.976C66.1422 139.674 57.1553 176.796 57.1553 176.796L63.0056 178.727L75.4727 151.967C75.4727 151.967 106.812 144.249 108.689 143.528C110.566 142.806 112.865 139.664 113.288 136.776" fill="white"/>
<path d="M62.9787 179.236H62.8553L56.9698 177.284C56.9136 177.266 56.8611 177.236 56.8153 177.194C56.7696 177.153 56.7316 177.101 56.7036 177.042C56.6756 176.983 56.6582 176.919 56.6525 176.852C56.6468 176.785 56.6528 176.717 56.6702 176.653C57.5513 172.851 65.7012 139.4 66.7585 137.681C67.4369 136.593 74.4502 133.96 88.0186 129.191C91.5429 127.951 94.5474 126.883 94.9174 126.68L100.768 123.304C100.819 123.273 100.875 123.254 100.933 123.249C100.991 123.243 101.049 123.251 101.104 123.272C101.159 123.292 101.21 123.326 101.254 123.37C101.297 123.414 101.333 123.468 101.358 123.528C101.384 123.588 101.399 123.653 101.402 123.72C101.406 123.787 101.398 123.854 101.379 123.917C101.36 123.981 101.331 124.039 101.293 124.089C101.254 124.139 101.207 124.18 101.155 124.209L95.3051 127.585C94.8998 127.819 92.6178 128.602 88.2565 130.157C81.2785 132.618 68.2915 137.193 67.4545 138.291C66.6175 139.389 61.2166 161.575 57.613 176.45L62.7056 178.128L75.0405 151.692C75.0709 151.627 75.1135 151.57 75.1654 151.526C75.2172 151.482 75.2769 151.452 75.3401 151.438C75.6484 151.357 106.671 143.721 108.503 143.009C110.16 142.379 112.407 139.461 112.812 136.665C112.819 136.598 112.838 136.534 112.868 136.477C112.898 136.419 112.937 136.369 112.984 136.33C113.032 136.291 113.085 136.263 113.142 136.249C113.199 136.235 113.257 136.235 113.314 136.248C113.371 136.258 113.426 136.28 113.475 136.315C113.524 136.35 113.567 136.395 113.601 136.449C113.634 136.504 113.658 136.565 113.671 136.63C113.684 136.695 113.685 136.762 113.675 136.827C113.252 139.745 110.926 143.151 108.785 143.944C106.962 144.646 78.6353 151.631 75.7189 152.353L63.2871 178.9C63.2643 178.982 63.224 179.055 63.1701 179.114C63.1162 179.172 63.0504 179.214 62.9787 179.236Z" fill="#263238"/>
<mask id="mask10_8_5068" style="mask-type:luminance" maskUnits="userSpaceOnUse" x="57" y="123" width="57" height="56">
<mask id="mask11_8_5068" style="mask-type:luminance" maskUnits="userSpaceOnUse" x="57" y="123" width="57" height="56">
<path d="M101.024 123.762L95.1734 127.127C93.9222 127.859 68.2215 136.278 67.1818 137.976C66.1422 139.674 57.1553 176.796 57.1553 176.796L63.0056 178.727L75.4727 151.967C75.4727 151.967 106.812 144.249 108.689 143.528C110.566 142.806 112.865 139.664 113.288 136.776" fill="white"/>
</mask>
<g mask="url(#mask11_8_5068)">
<path d="M62.9787 179.236H62.8553L56.9698 177.284C56.9136 177.266 56.8611 177.236 56.8153 177.194C56.7696 177.153 56.7316 177.101 56.7036 177.042C56.6756 176.983 56.6582 176.918 56.6525 176.852C56.6468 176.785 56.6528 176.717 56.6702 176.653C57.5513 172.851 65.7012 139.399 66.7585 137.681C67.4369 136.593 74.4502 133.96 88.0186 129.191C91.5429 127.951 94.5474 126.883 94.9174 126.68L100.768 123.304C100.819 123.273 100.875 123.254 100.933 123.248C100.991 123.243 101.049 123.251 101.104 123.271C101.159 123.292 101.21 123.326 101.254 123.37C101.297 123.414 101.333 123.468 101.358 123.528C101.384 123.588 101.399 123.653 101.402 123.72C101.406 123.787 101.398 123.854 101.379 123.917C101.36 123.98 101.331 124.039 101.293 124.089C101.254 124.139 101.207 124.18 101.155 124.209L95.3051 127.585C94.8998 127.819 92.6178 128.602 88.2565 130.157C81.2785 132.618 68.2915 137.193 67.4545 138.291C66.6175 139.389 61.2166 161.575 57.613 176.45L62.7056 178.128L75.0405 151.692C75.0709 151.627 75.1135 151.57 75.1654 151.526C75.2172 151.482 75.2769 151.452 75.3401 151.438C75.6484 151.356 106.671 143.721 108.503 143.009C110.16 142.379 112.407 139.46 112.812 136.664C112.819 136.598 112.838 136.534 112.868 136.476C112.898 136.419 112.937 136.369 112.984 136.33C113.032 136.291 113.085 136.263 113.142 136.249C113.199 136.235 113.257 136.234 113.314 136.248C113.371 136.257 113.426 136.28 113.475 136.315C113.524 136.35 113.567 136.395 113.601 136.449C113.634 136.503 113.658 136.565 113.671 136.63C113.684 136.694 113.685 136.762 113.675 136.827C113.252 139.745 110.926 143.151 108.785 143.944C106.962 144.646 78.6353 151.631 75.7189 152.353L63.2871 178.9C63.2643 178.982 63.224 179.055 63.1701 179.114C63.1162 179.172 63.0504 179.214 62.9787 179.236Z" fill="white"/>
</g>
</mask>
<g mask="url(#mask10_8_5068)">
<path d="M82.5921 131.652C75.4026 134.214 67.7197 137.071 67.1558 137.976C66.4157 139.176 61.6843 158.189 58.9883 169.149C62.9619 166.791 69.3408 162.795 67.1558 162.602C64.169 162.327 63.7108 160.476 67.6139 157.294C71.5171 154.112 79.0678 147.747 77.0414 147.218C75.0149 146.689 67.8518 145.622 72.2131 142.968C76.5744 140.314 100.716 142.968 105.077 140.579C109.438 138.189 99.5615 137.132 93.8169 136.339C88.0723 135.546 99.1033 135.546 99.1033 135.546C99.1033 135.546 103.015 135.281 102.09 130.462C101.165 125.643 97.165 127.412 95.1473 127.086C94.6099 127.402 89.5261 129.12 83.8432 131.153L82.5921 131.652Z" fill="#96ABC6"/>
<path opacity="0.5" d="M82.5921 131.652C75.4026 134.214 67.7197 137.071 67.1558 137.976C66.4157 139.176 61.6843 158.189 58.9883 169.149C62.9619 166.791 69.3408 162.795 67.1558 162.602C64.169 162.327 63.7108 160.476 67.6139 157.294C71.5171 154.112 79.0678 147.747 77.0414 147.218C75.0149 146.689 67.8518 145.622 72.2131 142.968C76.5744 140.314 100.716 142.968 105.077 140.579C109.438 138.189 99.5615 137.132 93.8169 136.339C88.0723 135.546 99.1033 135.546 99.1033 135.546C99.1033 135.546 103.015 135.281 102.09 130.462C101.165 125.643 97.165 127.412 95.1473 127.086C94.6099 127.402 89.5261 129.12 83.8432 131.153L82.5921 131.652Z" fill="white"/>
</g>
<path d="M62.9795 178.727C62.9795 178.727 64.442 186.922 64.442 187.644C64.442 188.366 62.3451 190.298 62.3451 190.298L61.094 192.464C61.094 192.464 58.7944 193.481 58.1688 192.464C57.7096 191.637 57.3593 190.736 57.1292 189.79C57.1292 189.79 54.4067 190.034 53.9926 187.868C53.5785 185.702 57.1292 176.775 57.1292 176.775L62.9795 178.727Z" fill="white"/>
<path d="M59.2264 193.399C58.9653 193.427 58.7021 193.384 58.4575 193.275C58.213 193.165 57.9937 192.992 57.8167 192.769C57.3802 192.015 57.039 191.193 56.8035 190.329C55.9753 190.329 53.9577 190.064 53.5612 187.99C53.1294 185.723 56.3542 177.507 56.7242 176.572C56.7698 176.464 56.8466 176.377 56.9414 176.327C57.0363 176.277 57.1432 176.266 57.244 176.297L63.0943 178.219C63.1727 178.247 63.2433 178.299 63.299 178.368C63.3547 178.438 63.3935 178.523 63.4115 178.616C63.6494 179.988 64.8829 186.892 64.8829 187.634C64.8829 188.376 63.5261 189.841 62.6802 190.684L61.4644 192.789C61.4095 192.878 61.3327 192.945 61.2441 192.982C60.5951 193.245 59.9139 193.385 59.2264 193.399ZM57.1295 189.332C57.2248 189.332 57.3176 189.368 57.3938 189.434C57.4701 189.5 57.5257 189.593 57.5524 189.698C57.7687 190.579 58.0952 191.418 58.5216 192.189C58.7859 192.596 59.9754 192.393 60.8124 192.067L61.9842 190.034C62.0088 189.992 62.0384 189.954 62.0723 189.922C62.8233 189.295 63.4759 188.525 64.0018 187.644C64.0018 187.177 63.1208 182.306 62.6009 179.144L57.3674 177.426C56.0282 180.863 54.1515 186.394 54.4246 187.797C54.7506 189.515 57.0678 189.332 57.0678 189.322L57.1295 189.332Z" fill="#263238"/>
<path d="M64.6448 174.65H64.5215L58.0456 172.505C57.9348 172.465 57.8417 172.377 57.7858 172.259C57.73 172.142 57.7157 172.004 57.7461 171.875C57.7612 171.81 57.7876 171.749 57.8235 171.696C57.8595 171.644 57.9043 171.6 57.9554 171.567C58.0064 171.535 58.0625 171.515 58.1204 171.508C58.1784 171.502 58.2368 171.509 58.2923 171.529L64.7682 173.695C64.885 173.714 64.9906 173.785 65.0616 173.894C65.1327 174.003 65.1634 174.139 65.1471 174.274C65.1307 174.409 65.0686 174.531 64.9744 174.613C64.8802 174.695 64.7617 174.73 64.6448 174.711V174.65Z" fill="#263238"/>
<path d="M226.549 192.749C221.562 189.607 219.289 192.22 217.474 189.607C215.659 186.994 222.461 180.181 208.848 173.339C208.848 173.339 207.967 158.677 189.342 158.148C170.716 157.62 175.729 172.82 170.733 176.45C165.738 180.08 164.381 174.355 159.394 178.026C154.407 181.696 156.672 189.017 152.583 190.064C148.495 191.112 143.059 185.357 138.063 189.048C133.068 192.738 133.077 195.86 130.803 195.86C128.53 195.86 124.002 193.765 121.279 195.86C118.557 197.954 115.376 200.567 115.376 200.567H230.179C230.179 200.567 231.545 195.89 226.549 192.749Z" fill="white"/>
<path d="M285.246 92.578C282.268 90.697 280.911 92.2628 279.827 90.697C278.744 89.1312 282.814 85.0744 274.682 81.0175C274.682 81.0175 274.144 72.2633 263.043 71.9481C251.941 71.6329 254.911 80.7023 251.933 82.8883C248.955 85.0744 248.144 81.6377 245.166 83.8238C242.188 86.0098 243.536 90.392 241.104 91.0122C238.673 91.6324 235.413 88.2059 232.435 90.392C229.457 92.578 229.457 94.459 228.1 94.459C226.743 94.459 224.038 93.2084 222.417 94.459C220.796 95.7096 218.893 97.2754 218.893 97.2754H287.413C287.413 97.2754 288.224 94.4488 285.246 92.578Z" fill="white"/>
<path d="M344.251 218.381C340.726 216.174 339.149 218.015 337.872 216.174C336.594 214.334 341.396 209.555 331.819 204.766C331.819 204.766 331.176 194.467 318.109 194.101C305.043 193.735 308.55 204.4 305.043 206.983C301.537 209.566 300.576 205.509 297.069 208.081C293.563 210.653 295.158 215.808 292.294 216.54C289.431 217.273 285.598 213.236 282.091 215.808C278.585 218.381 278.567 220.587 276.99 220.587C275.413 220.587 272.206 219.113 270.294 220.587C268.382 222.061 265.562 228.955 265.562 228.955H346.207C346.207 228.955 347.722 220.587 344.251 218.381Z" fill="white"/>
<g opacity="0.11">
<path d="M343.695 223.475C340.171 221.268 338.594 223.108 337.325 221.268C336.057 219.428 340.85 214.649 331.264 209.87C331.264 209.87 330.629 199.571 317.554 199.194C304.479 198.818 307.995 209.494 304.488 212.077C300.981 214.659 300.03 210.602 296.558 213.175C293.087 215.747 294.646 220.902 291.774 221.634C288.902 222.366 285.078 218.33 281.571 220.902C278.065 223.475 278.047 225.681 276.47 225.681C274.893 225.681 271.695 224.217 269.783 225.681C267.871 227.145 265.633 228.995 265.633 228.995H346.286C346.286 228.995 347.202 225.681 343.695 223.475Z" fill="#121212"/>
</g>
<path d="M372.101 173.308C366.735 169.933 364.304 172.749 362.348 169.933C360.392 167.116 367.713 159.765 353.079 152.475C353.079 152.475 352.11 136.715 332.101 136.156C312.092 135.597 317.475 151.916 312.109 155.861C306.743 159.806 305.272 153.604 299.906 157.549C294.541 161.494 296.981 169.363 292.594 170.492C288.206 171.62 282.347 165.408 276.981 169.363C271.615 173.318 271.615 176.684 269.175 176.684C266.734 176.684 261.862 174.437 258.937 176.684C256.012 178.931 251.686 189.495 251.686 189.495H375.106C375.106 189.495 377.467 176.684 372.101 173.308Z" fill="white"/>
<g opacity="0.11">
<path d="M371.264 181.107C365.898 177.731 363.458 180.537 361.502 177.731C359.546 174.925 366.867 167.563 352.233 160.273C352.233 160.273 351.264 144.514 331.263 143.954C311.263 143.395 316.629 159.714 311.263 163.649C305.897 167.584 304.435 161.402 299.06 165.347C293.686 169.292 296.135 177.162 291.748 178.29C287.36 179.419 281.501 173.206 276.135 177.162C270.769 181.117 270.769 184.482 268.329 184.482C265.888 184.482 261.016 182.235 258.091 184.482C255.166 186.729 251.747 189.566 251.747 189.566H375.167C375.167 189.566 376.63 184.482 371.264 181.107Z" fill="#121212"/>
</g>
<path d="M279.607 262.121C275.131 259.305 273.096 261.654 271.474 259.305C269.853 256.956 275.941 250.856 263.747 244.755C263.747 244.755 262.928 231.619 246.258 231.151C229.588 230.683 234.064 244.287 229.588 247.572C225.113 250.856 223.888 245.701 219.421 248.985C214.954 252.269 216.98 258.837 213.315 259.773C209.65 260.708 204.778 255.553 200.302 258.837C195.826 262.121 195.835 264.938 193.799 264.938C191.764 264.938 187.694 263.067 185.253 264.938C182.813 266.809 179.218 275.614 179.218 275.614H282.1C282.1 275.614 284.082 264.938 279.607 262.121Z" fill="white"/>
<g opacity="0.11">
<path d="M278.901 268.628C274.425 265.812 272.39 268.151 270.768 265.812C269.147 263.473 275.244 257.363 263.041 251.262C263.041 251.262 262.231 238.116 245.552 237.648C228.874 237.18 233.349 250.795 228.882 254.079C224.415 257.363 223.182 252.198 218.715 255.482C214.248 258.766 216.274 265.334 212.609 266.28C208.944 267.225 204.072 262.05 199.596 265.334C195.12 268.618 195.129 271.435 193.093 271.435C191.058 271.435 186.988 269.554 184.556 271.435C182.124 273.316 179.27 275.654 179.27 275.654H282.152C282.152 275.654 283.403 271.445 278.901 268.628Z" fill="#121212"/>
</g>
<defs>
<filter id="filter0_f_8_5068" x="109.957" y="9.56996" width="237.174" height="123.801" filterUnits="userSpaceOnUse" color-interpolation-filters="sRGB">
<feFlood flood-opacity="0" result="BackgroundImageFix"/>
<feBlend mode="normal" in="SourceGraphic" in2="BackgroundImageFix" result="shape"/>
<feGaussianBlur stdDeviation="10" result="effect1_foregroundBlur_8_5068"/>
</filter>
<filter id="filter1_f_8_5068" x="53.2695" y="63.6206" width="296.329" height="74.5695" filterUnits="userSpaceOnUse" color-interpolation-filters="sRGB">
<feFlood flood-opacity="0" result="BackgroundImageFix"/>
<feBlend mode="normal" in="SourceGraphic" in2="BackgroundImageFix" result="shape"/>
<feGaussianBlur stdDeviation="10" result="effect1_foregroundBlur_8_5068"/>
</filter>
<filter id="filter2_f_8_5068" x="50.4854" y="106.69" width="303.316" height="285.881" filterUnits="userSpaceOnUse" color-interpolation-filters="sRGB">
<feFlood flood-opacity="0" result="BackgroundImageFix"/>
<feBlend mode="normal" in="SourceGraphic" in2="BackgroundImageFix" result="shape"/>
<feGaussianBlur stdDeviation="10" result="effect1_foregroundBlur_8_5068"/>
</filter>
<filter id="filter3_f_8_5068" x="191.677" y="0.876617" width="149.825" height="122.682" filterUnits="userSpaceOnUse" color-interpolation-filters="sRGB">
<feFlood flood-opacity="0" result="BackgroundImageFix"/>
<feBlend mode="normal" in="SourceGraphic" in2="BackgroundImageFix" result="shape"/>
<feGaussianBlur stdDeviation="10" result="effect1_foregroundBlur_8_5068"/>
</filter>
<filter id="filter4_f_8_5068" x="17.5586" y="100.823" width="333.66" height="112.017" filterUnits="userSpaceOnUse" color-interpolation-filters="sRGB">
<feFlood flood-opacity="0" result="BackgroundImageFix"/>
<feBlend mode="normal" in="SourceGraphic" in2="BackgroundImageFix" result="shape"/>
<feGaussianBlur stdDeviation="10" result="effect1_foregroundBlur_8_5068"/>
</filter>
<filter id="filter5_f_8_5068" x="252.637" y="114.478" width="104.512" height="224.723" filterUnits="userSpaceOnUse" color-interpolation-filters="sRGB">
<feFlood flood-opacity="0" result="BackgroundImageFix"/>
<feBlend mode="normal" in="SourceGraphic" in2="BackgroundImageFix" result="shape"/>
<feGaussianBlur stdDeviation="10" result="effect1_foregroundBlur_8_5068"/>
</filter>
<filter id="filter6_f_8_5068" x="305.978" y="122.938" width="54.6963" height="171.242" filterUnits="userSpaceOnUse" color-interpolation-filters="sRGB">
<feFlood flood-opacity="0" result="BackgroundImageFix"/>
<feBlend mode="normal" in="SourceGraphic" in2="BackgroundImageFix" result="shape"/>
<feGaussianBlur stdDeviation="10" result="effect1_foregroundBlur_8_5068"/>
</filter>
<filter id="filter7_f_8_5068" x="0.845703" y="103.803" width="351.695" height="220.88" filterUnits="userSpaceOnUse" color-interpolation-filters="sRGB">
<feFlood flood-opacity="0" result="BackgroundImageFix"/>
<feBlend mode="normal" in="SourceGraphic" in2="BackgroundImageFix" result="shape"/>
<feGaussianBlur stdDeviation="10" result="effect1_foregroundBlur_8_5068"/>
</filter>
<filter id="filter8_f_8_5068" x="183.165" y="109.974" width="172.063" height="243.259" filterUnits="userSpaceOnUse" color-interpolation-filters="sRGB">
<feFlood flood-opacity="0" result="BackgroundImageFix"/>
<feBlend mode="normal" in="SourceGraphic" in2="BackgroundImageFix" result="shape"/>
<feGaussianBlur stdDeviation="10" result="effect1_foregroundBlur_8_5068"/>
</filter>
</defs>
</svg>
