<svg width="363" height="219" viewBox="0 0 363 219" fill="none" xmlns="http://www.w3.org/2000/svg">
<path d="M20.1444 89.7124C20.1444 89.7124 15.8464 89.3757 16.2426 99.8671C16.6387 110.358 17.621 115.953 17.621 115.953C17.621 115.953 17.4961 118.274 15.841 117.819C14.1859 117.365 11.071 115.102 9.52983 116.821C7.98866 118.54 8.50419 121.269 10.6152 124.441C12.7261 127.614 17.1271 134.744 17.5287 135.394C17.9303 136.043 18.0714 137.219 16.8992 137.101C15.7271 136.983 7.80416 134.065 6.75681 138.241C5.70947 142.417 12.9323 150.197 13.7083 151.066C14.4844 151.934 14.5278 152.478 14.213 153.003C13.8983 153.529 11.3206 152.271 9.03601 151.544C6.75139 150.818 3.98922 150.369 3.56052 152.856C3.13181 155.343 6.32268 162.532 18.245 170.105L23.981 173.224L29.4076 169.455C40.5702 160.594 43.0774 153.098 42.4316 150.694C41.7858 148.289 39.0725 148.998 36.8693 149.973C34.6661 150.948 32.2132 152.478 31.8551 151.993C31.4969 151.509 31.486 150.953 32.1752 150.008C32.8644 149.063 39.3438 140.557 37.9166 136.492C36.4894 132.428 28.8758 136.221 27.7199 136.463C26.5641 136.705 26.6346 135.506 26.9385 134.832C27.2424 134.159 30.9922 126.562 32.8101 123.183C34.6281 119.804 34.9374 117.051 33.19 115.504C31.4426 113.956 28.6153 116.579 27.0091 117.217C25.4028 117.855 25.0663 115.545 25.0663 115.545C25.0663 115.545 25.5276 109.88 24.9578 99.3945C24.388 88.909 20.0412 89.7597 20.0412 89.7597" fill="#34DD5A"/>
<path d="M20.4856 99.0991C20.4856 99.0991 20.4856 99.17 20.4856 99.3177C20.4856 99.4654 20.4856 99.6839 20.529 99.9616C20.567 100.552 20.6158 101.368 20.6864 102.437C20.8166 104.593 20.9848 107.706 21.1802 111.558C21.5763 119.237 22.0322 129.9 22.5043 141.655C22.9764 153.411 23.4105 164.062 23.7633 171.783C23.9424 175.628 24.0889 178.742 24.192 180.904C24.2408 181.973 24.2788 182.806 24.3059 183.385C24.3059 183.662 24.3059 183.875 24.3059 184.029C24.3095 184.103 24.3095 184.178 24.3059 184.253C24.3059 184.253 24.3059 184.176 24.3059 184.034C24.3059 183.893 24.3059 183.662 24.2625 183.391C24.2245 182.8 24.1703 181.979 24.1052 180.909C23.9749 178.759 23.8067 175.646 23.6113 171.795C23.2152 164.115 22.7593 153.446 22.2872 141.667C21.8151 129.888 21.381 119.267 21.0282 111.54C20.8437 107.7 20.7026 104.587 20.5995 102.419C20.5507 101.35 20.5127 100.517 20.4856 99.938C20.4856 99.6662 20.4856 99.4477 20.4856 99.2941C20.4827 99.2291 20.4827 99.1641 20.4856 99.0991Z" fill="#E0E0E0"/>
<path d="M13.7734 120.153C13.9034 120.242 14.022 120.349 14.1262 120.472C14.3487 120.69 14.6688 121.015 15.0378 121.423C15.7976 122.244 16.8124 123.396 17.914 124.701L20.7195 128.045L21.5715 129.055C21.6867 129.168 21.7871 129.297 21.87 129.439C21.7388 129.35 21.6185 129.242 21.5118 129.12C21.2948 128.902 20.9692 128.577 20.6056 128.163C19.8567 127.336 18.8528 126.166 17.7512 124.867L14.9564 121.547C14.6146 121.157 14.3324 120.82 14.0936 120.543C13.9709 120.429 13.8632 120.298 13.7734 120.153Z" fill="#E0E0E0"/>
<path d="M22.4401 129.227C22.3967 129.179 24.4968 126.793 27.1233 123.91C29.7498 121.027 31.9259 118.694 31.9693 118.741C32.0127 118.788 29.9126 121.175 27.2807 124.058C24.6488 126.94 22.4835 129.274 22.4401 129.227Z" fill="#E0E0E0"/>
<path d="M22.418 147.321C22.5423 147.213 22.6769 147.119 22.8195 147.043L23.9374 146.358C24.8871 145.767 26.1895 144.975 27.6004 144.03C29.0113 143.085 30.2649 142.193 31.1657 141.531L32.2511 140.758C32.3761 140.651 32.5128 140.562 32.6581 140.492C32.5521 140.622 32.4318 140.737 32.2999 140.834C32.0611 141.035 31.7084 141.325 31.2688 141.673C30.3843 142.37 29.1416 143.292 27.7252 144.237C26.3089 145.182 25.0119 145.968 24.0243 146.505C23.5413 146.777 23.1451 146.99 22.8684 147.126C22.7274 147.213 22.5757 147.279 22.418 147.321Z" fill="#E0E0E0"/>
<path d="M12.915 140.988C13.0535 141.039 13.1864 141.106 13.3112 141.189L14.3531 141.821C15.2268 142.359 16.4207 143.121 17.7393 143.971C19.058 144.822 20.241 145.608 21.093 146.186C21.5217 146.476 21.8636 146.712 22.1024 146.884C22.2292 146.961 22.3476 147.054 22.4551 147.161C22.313 147.116 22.1777 147.048 22.0535 146.96L21.017 146.358C20.1433 145.814 18.944 145.058 17.6254 144.202C16.3067 143.345 15.1237 142.565 14.2717 141.992C13.843 141.703 13.5011 141.467 13.2678 141.295C13.1386 141.21 13.02 141.106 12.915 140.988Z" fill="#E0E0E0"/>
<path d="M11.0342 156.991C11.2115 157.057 11.3809 157.147 11.5389 157.257L12.8738 158.054C13.9917 158.739 15.5383 159.702 17.2151 160.777C18.892 161.853 20.4711 162.839 21.5564 163.56L22.8588 164.428C23.023 164.527 23.1775 164.644 23.3201 164.777C23.1453 164.704 22.9765 164.615 22.8154 164.511L21.4696 163.678C20.3463 162.993 18.8051 162.03 17.1283 160.955C15.4515 159.88 13.8723 158.893 12.787 158.172L11.49 157.304C11.3289 157.216 11.1762 157.111 11.0342 156.991Z" fill="#E0E0E0"/>
<path d="M23.0977 164.47C23.2513 164.328 23.4187 164.205 23.5969 164.103L24.9916 163.182C26.1637 162.402 27.7863 161.315 29.5499 160.069C31.3136 158.822 32.8765 157.647 34.0106 156.79L35.351 155.774C35.5086 155.64 35.6776 155.524 35.8557 155.425C35.7177 155.584 35.5649 155.726 35.3999 155.851C35.096 156.111 34.6564 156.477 34.0975 156.926C33.0121 157.818 31.433 159.017 29.6693 160.269C27.9057 161.522 26.2668 162.585 25.0675 163.329C24.4652 163.696 23.9822 163.991 23.6349 164.186C23.4636 164.297 23.2839 164.392 23.0977 164.47Z" fill="#E0E0E0"/>
<path d="M31.6986 175.245H15.8311L21.0135 217.919H26.5215L31.6986 175.245Z" fill="#455A64"/>
<path d="M16.6553 180.49C16.6553 180.49 16.6553 180.549 16.7421 180.644C16.8452 180.774 16.9755 180.875 17.122 180.939C17.3987 181.043 17.6936 181.077 17.9843 181.038C18.2749 180.999 18.5535 180.889 18.7988 180.715C19.4391 180.331 19.9981 179.574 20.8555 179.244C21.8076 178.909 22.835 178.93 23.775 179.303C24.729 179.661 25.64 180.143 26.4884 180.738C27.1994 181.22 27.9391 181.651 28.7024 182.026C29.2201 182.28 29.7682 182.453 30.3304 182.54C30.483 182.566 30.6373 182.578 30.7917 182.575C30.8948 182.575 30.9491 182.575 30.9491 182.575C30.199 182.449 29.4685 182.21 28.7784 181.866C28.032 181.467 27.3072 181.021 26.6077 180.531C25.7484 179.913 24.8202 179.417 23.8456 179.055C22.8516 178.663 21.7647 178.65 20.7632 179.019C20.34 179.206 19.9491 179.469 19.6074 179.799C19.3198 180.075 19.0152 180.33 18.6957 180.561C18.4736 180.728 18.2208 180.841 17.9548 180.892C17.6888 180.943 17.4158 180.931 17.1545 180.856C16.9686 180.769 16.7993 180.645 16.6553 180.49Z" fill="#F5F5F5"/>
<path d="M17.2351 188.347C17.2351 188.347 17.3599 188.176 17.6096 187.892C17.9681 187.505 18.3995 187.206 18.874 187.018C19.581 186.739 20.3317 186.617 21.0826 186.657C22.0084 186.73 22.9292 186.866 23.8393 187.065C24.7708 187.259 25.7234 187.303 26.6666 187.195C27.4364 187.086 28.1866 186.851 28.8916 186.498C29.3668 186.266 29.8165 185.977 30.2319 185.635C30.392 185.522 30.5348 185.383 30.6552 185.222C30.0689 185.636 29.4559 186.003 28.821 186.321C28.1253 186.624 27.3951 186.822 26.6503 186.911C25.7296 187.004 24.8016 186.954 23.8936 186.764C22.9712 186.565 22.0375 186.435 21.0989 186.374C20.3176 186.344 19.5392 186.492 18.8143 186.811C18.3244 187.021 17.8886 187.358 17.5444 187.792C17.4538 187.911 17.3738 188.04 17.3057 188.176C17.246 188.3 17.2243 188.347 17.2351 188.347Z" fill="#F5F5F5"/>
<path d="M29.9022 192.559C29.7715 192.447 29.6223 192.362 29.4627 192.311C29.0416 192.137 28.5989 192.033 28.1494 192.004C27.4852 191.958 26.8184 192 26.1633 192.128C25.4198 192.258 24.6275 192.482 23.7973 192.671C23.0223 192.872 22.2278 192.969 21.4312 192.961C20.7875 192.944 20.1524 192.795 19.559 192.523C19.0118 192.244 18.5253 191.841 18.1318 191.342C18.1916 191.513 18.2841 191.668 18.4032 191.797C18.7053 192.169 19.0748 192.468 19.4885 192.677C20.0974 192.991 20.7581 193.168 21.4312 193.197C22.2472 193.222 23.0628 193.131 23.8569 192.925C24.7035 192.73 25.4849 192.5 26.2121 192.334C26.8503 192.201 27.4997 192.141 28.1494 192.157C28.7468 192.211 29.3357 192.346 29.9022 192.559Z" fill="#F5F5F5"/>
<path d="M18.6359 198.478C19.1208 198.248 19.6595 198.188 20.1771 198.307C20.741 198.457 21.2872 198.677 21.8051 198.962C22.4621 199.304 23.1694 199.516 23.8943 199.588C25.2218 199.718 26.5526 199.382 27.693 198.631C28.0327 198.405 28.3493 198.14 28.6372 197.84C28.8326 197.615 28.9303 197.485 28.914 197.474C28.4952 197.831 28.0566 198.161 27.6007 198.46C26.477 199.129 25.1979 199.425 23.9215 199.311C22.4183 199.216 21.2624 198.242 20.2205 198.129C19.8203 198.053 19.4089 198.092 19.0266 198.242C18.7553 198.342 18.6305 198.466 18.6359 198.478Z" fill="#F5F5F5"/>
<path d="M19.5206 206.665C19.976 206.682 20.4288 206.585 20.8447 206.382C21.6424 206.092 22.63 205.425 23.7805 204.929C24.3164 204.688 24.8886 204.558 25.4682 204.545C25.9381 204.542 26.4022 204.658 26.8248 204.881C27.2091 205.103 27.5429 205.416 27.8016 205.797C27.7794 205.665 27.7272 205.541 27.6497 205.437C27.4571 205.129 27.1981 204.877 26.8954 204.704C26.4544 204.439 25.9608 204.295 25.4573 204.285C24.8472 204.285 24.2429 204.414 23.6774 204.663C22.4835 205.183 21.5067 205.844 20.7632 206.193C20.0198 206.541 19.5151 206.612 19.5206 206.665Z" fill="#F5F5F5"/>
<path d="M20.2959 210.476C20.613 210.647 20.9511 210.769 21.2998 210.836C22.1275 211.047 22.9667 211.201 23.8124 211.297C24.6581 211.386 25.5085 211.411 26.3575 211.374C26.7124 211.381 27.0667 211.335 27.4102 211.238C27.4102 211.155 25.7822 211.238 23.8395 211.013C21.8968 210.789 20.3176 210.393 20.2959 210.476Z" fill="#F5F5F5"/>
<path d="M316.004 103.135L267.751 115.136L275.182 150.542L323.435 138.541L316.004 103.135Z" fill="#F5F5F5"/>
<path d="M316.255 103.506C316.155 103.715 316.037 103.913 315.902 104.097L314.817 105.71L310.795 111.617C307.339 116.603 302.607 123.431 297.359 130.993L297.25 131.152L297.082 131.064L296.686 130.857L276.352 120.106L270.21 116.803L268.582 115.882C268.382 115.783 268.191 115.665 268.012 115.527C268.221 115.596 268.424 115.685 268.62 115.793L270.313 116.632L276.521 119.775L296.909 130.408L297.31 130.621L297.033 130.692C302.319 123.166 307.089 116.366 310.6 111.404C312.32 108.982 313.726 107.015 314.735 105.603L315.875 104.044C315.984 103.851 316.112 103.671 316.255 103.506Z" fill="#E0E0E0"/>
<path d="M275.436 150.918C275.327 150.853 277.938 145.099 281.264 138.064C284.591 131.028 287.385 125.369 287.494 125.428C287.602 125.487 284.992 131.247 281.666 138.288C278.339 145.33 275.539 150.977 275.436 150.918Z" fill="#E0E0E0"/>
<path d="M303.438 120.998C303.514 120.891 308.11 124.82 313.705 129.764C319.3 134.708 323.766 138.808 323.684 138.914C323.603 139.021 319.012 135.092 313.417 130.142C307.822 125.192 303.356 121.104 303.438 120.998Z" fill="#E0E0E0"/>
<path d="M101.052 6.86456L96.627 27.7297L125.063 34.8763L129.489 14.0111L101.052 6.86456Z" fill="#F5F5F5"/>
<path d="M129.534 14.2938C129.432 14.3749 129.323 14.4461 129.209 14.5065L128.259 15.0618L124.732 17.0585L113.026 23.5565L112.929 23.6097L112.858 23.5211L112.695 23.2966L104.452 11.9191L101.978 8.4397L101.316 7.48862C101.231 7.3843 101.158 7.26926 101.099 7.146C101.192 7.23942 101.278 7.34227 101.354 7.45318L102.059 8.37472L104.599 11.7891L112.907 23.1371L113.07 23.3557L112.907 23.3202L124.645 16.8812L128.21 14.9614L129.187 14.4533C129.297 14.3868 129.414 14.3333 129.534 14.2938Z" fill="#E0E0E0"/>
<path d="M96.6704 28.0106C96.627 27.9456 99.3838 25.6477 102.803 22.824C106.221 20.0003 109.049 17.8028 109.092 17.8677C109.135 17.9327 106.379 20.2307 102.96 23.0544C99.5411 25.8781 96.7138 28.0756 96.6704 28.0106Z" fill="#E0E0E0"/>
<path d="M118.606 19.9826C118.671 19.9471 120.185 23.3202 121.981 27.5085C123.778 31.6968 125.178 35.123 125.113 35.188C125.047 35.253 123.539 31.8504 121.743 27.6621C119.946 23.4738 118.536 20.0121 118.606 19.9826Z" fill="#E0E0E0"/>
<path d="M281.314 12.1025L260.537 21.8195L266.554 37.0656L287.331 27.3486L281.314 12.1025Z" fill="#F5F5F5"/>
<path d="M281.449 12.2617C281.418 12.3613 281.38 12.4581 281.335 12.5512L280.976 13.3723C280.645 14.1048 280.179 15.1445 279.614 16.385L275.04 26.2975L275.002 26.3802H274.92L274.725 26.327L264.778 23.3143L261.766 22.3041L260.952 22.0383L260.67 21.932C260.769 21.9422 260.868 21.964 260.963 21.997L261.788 22.2214L264.816 23.0898L274.779 26.0435L274.975 26.1025L274.861 26.1616C276.662 22.3041 278.296 18.8188 279.484 16.2787C280.076 15.0382 280.569 14.0221 280.906 13.325L281.297 12.5216C281.339 12.4294 281.39 12.3423 281.449 12.2617Z" fill="#E0E0E0"/>
<path d="M266.689 37.1964C266.635 37.1964 267.373 34.355 268.317 30.8933C269.262 27.4316 270.13 24.667 270.184 24.667C270.238 24.667 269.5 27.5025 268.556 30.9642C267.612 34.4259 266.754 37.2141 266.689 37.1964Z" fill="#E0E0E0"/>
<path d="M277.009 21.2408C277.036 21.1817 279.402 22.5345 282.289 24.2594C285.176 25.9843 287.493 27.4198 287.466 27.473C287.439 27.5261 285.078 26.1793 282.191 24.4543C279.304 22.7294 276.982 21.2939 277.009 21.2408Z" fill="#E0E0E0"/>
<path d="M308.821 166.301C306.602 164.781 304.092 163.838 301.484 163.542C300.285 163.412 298.972 163.448 298.006 164.239C297.896 164.31 297.805 164.412 297.742 164.533C297.679 164.654 297.647 164.791 297.647 164.93C297.707 165.127 297.828 165.294 297.989 165.403C299.551 166.617 301.388 167.342 303.301 167.5C305.214 167.659 307.131 167.244 308.843 166.301" fill="#34DD5A"/>
<path d="M308.629 166.071C306.926 164.71 305.338 163.187 303.881 161.522C302.418 159.848 301.392 157.781 300.907 155.532C300.81 155.199 300.781 154.847 300.821 154.5C300.862 154.153 300.97 153.82 301.14 153.523C304.939 156.743 307.897 160.908 308.629 166.071Z" fill="#34DD5A"/>
<path d="M308.782 166.266C308.428 164.018 308.458 161.719 308.869 159.484C309.291 157.23 310.477 155.23 312.19 153.884C312.842 155.544 312.565 157.464 312.104 159.2C311.39 161.895 310.277 164.445 308.81 166.75" fill="#34DD5A"/>
<path d="M312.494 173.531C310.237 173.833 308.278 175.126 306.596 176.78C304.905 178.456 303.729 180.656 303.226 183.084C305.434 182.936 307.306 181.24 308.652 179.338C309.998 177.436 310.953 175.351 312.451 173.573" fill="#34DD5A"/>
<path d="M313.297 174.66C312.412 172.209 312.101 169.558 312.394 166.944C312.687 164.33 313.574 161.837 314.974 159.691C316.26 164.659 315.788 170.271 313.297 174.66Z" fill="#34DD5A"/>
<path d="M318.198 181.016C316.14 180.879 314.09 181.403 312.303 182.524C310.517 183.645 309.072 185.312 308.148 187.319C308.068 187.442 308.018 187.587 308.006 187.737C307.994 187.888 308.018 188.039 308.078 188.176C308.165 188.267 308.271 188.335 308.387 188.372C308.504 188.409 308.626 188.414 308.745 188.388C310.726 188.247 312.484 186.953 313.933 185.476C315.382 183.999 316.646 182.286 318.247 181.01" fill="#34DD5A"/>
<path d="M318.046 180.673C316.988 176.974 316.922 173.023 317.856 169.284C318.225 167.819 318.844 166.277 320.086 165.586C320.188 165.516 320.311 165.493 320.428 165.521C320.529 165.58 320.606 165.676 320.645 165.793C321.071 166.816 321.258 167.939 321.188 169.06C321.116 170.174 320.96 171.281 320.721 172.368C320.325 174.388 320.119 176.562 319.093 178.305C318.854 178.725 318.638 179.161 318.448 179.61C318.252 180.053 318.252 180.201 318.079 180.561" fill="#34DD5A"/>
<path d="M331.021 182.776C330.061 178.795 331.081 173.969 333.387 170.702C333.555 170.466 333.778 170.206 334.055 170.235C334.483 170.277 334.597 170.891 334.597 171.358C334.424 175.451 333.194 179.409 331.048 182.776" fill="#34DD5A"/>
<path d="M332.193 183.645C334.465 184.223 336.824 184.259 339.109 183.749C341.394 183.239 343.55 182.196 345.429 180.691C343.213 179.481 340.68 179.143 338.26 179.734C335.867 180.325 333.68 181.506 332.193 183.621" fill="#34DD5A"/>
<path d="M333.176 180.992C335.667 176.58 340.437 173.697 345.19 173.431C344.648 175.54 343.052 177.176 341.261 178.157C339.427 179.067 337.486 179.697 335.493 180.03C334.728 180.189 333.675 180.366 333.176 181.022" fill="#34DD5A"/>
<path d="M331.271 168.132C332.026 165.637 332.54 163.063 332.807 160.453C333.07 157.829 332.579 155.181 331.401 152.874C329.079 157.771 328.845 163.507 331.201 168.374" fill="#34DD5A"/>
<path d="M339.096 163.826C341.809 158.45 347.36 154.156 352.972 153.553C350.801 159.419 344.902 163.956 339.096 163.826Z" fill="#34DD5A"/>
<path d="M337.381 164.883C341.44 165.551 344.891 168.374 348.679 170.082C349.474 170.499 350.355 170.682 351.235 170.613C351.645 170.608 352.043 170.467 352.376 170.207C352.709 169.948 352.96 169.583 353.097 169.163C353.233 168.742 353.247 168.286 353.137 167.857C353.028 167.427 352.799 167.045 352.483 166.762C351.948 166.223 351.319 165.807 350.633 165.539C346.503 163.666 342.08 163.619 337.734 164.753" fill="#34DD5A"/>
<path d="M335.036 167.979C335.953 168.262 336.268 168.782 336.995 169.455C339.474 171.75 342.406 173.39 345.564 174.246C345.889 174.335 346.318 174.364 346.481 174.045C346.644 173.726 346.443 173.425 346.258 173.171C344.88 171.416 343.094 170.096 341.087 169.349C339.112 168.552 337.397 167.577 335.036 167.79" fill="#34DD5A"/>
<path d="M332.416 149.311C334.079 150.98 336.044 152.251 338.185 153.044C340.326 153.836 342.596 154.132 344.849 153.913C345.048 153.913 345.24 153.836 345.391 153.695C345.706 153.323 345.326 152.749 344.963 152.442C341.31 149.341 336.882 148.053 332.395 149.311" fill="#34DD5A"/>
<path d="M335.531 148.03C337.732 146.268 340.284 145.097 342.98 144.614C345.675 144.13 348.437 144.347 351.041 145.247C349.012 147.298 346.409 148.547 343.65 148.792C340.917 149.063 338.162 148.809 335.51 148.041" fill="#34DD5A"/>
<path d="M334.284 139.44C333.925 135.471 334.159 132.352 333.904 128.346C333.904 128.027 333.822 127.643 333.546 127.531C333.166 127.372 332.846 127.88 332.721 128.305C332.191 130.154 332.056 132.11 332.326 134.025C332.596 135.939 333.263 137.761 334.278 139.352" fill="#34DD5A"/>
<path d="M334.043 139.86C336.426 138.186 338.479 136.014 340.083 133.468C341.277 131.696 342.253 129.563 342.009 127.384C341.172 127.411 340.349 127.637 339.6 128.045C338.85 128.453 338.191 129.033 337.668 129.746C336.626 131.182 335.871 132.838 335.448 134.608C334.966 136.38 334.624 138.153 334.059 139.866" fill="#34DD5A"/>
<path d="M339.953 138.088C345.392 135.895 350.427 132.662 354.822 128.541C353.047 127.762 351.023 128.228 349.238 129.008C345.208 130.671 341.877 133.884 339.877 138.04" fill="#34DD5A"/>
<path d="M335.671 142.051C338.408 142.475 341.184 142.491 343.925 142.099C346.606 141.608 349.134 140.456 351.636 139.31C351.863 139.248 352.058 139.091 352.179 138.873C352.218 138.748 352.221 138.612 352.188 138.485C352.155 138.357 352.088 138.243 351.994 138.158C351.801 137.994 351.577 137.879 351.338 137.822C348.624 136.995 345.683 137.385 343.008 138.365C340.451 139.312 337.992 140.547 335.671 142.051Z" fill="#34DD5A"/>
<path d="M320.016 149.418C318.144 145.283 318.263 140.504 319.88 136.262C321.02 138.147 321.161 140.557 320.966 142.802C320.77 145.046 320.13 147.362 320.092 149.625" fill="#34DD5A"/>
<path d="M312.532 145.312C310.188 145.277 307.863 145.775 305.706 146.775C303.55 147.775 301.609 149.255 300.008 151.119C302.37 151.43 304.763 150.947 306.867 149.737C308.955 148.53 310.924 147.095 312.744 145.454" fill="#34DD5A"/>
<path d="M307.507 143.481C305.217 143.28 303.02 142.967 300.816 143.705C299.704 144.047 298.673 144.646 297.794 145.462C296.914 146.278 296.207 147.291 295.721 148.431C297.878 148.621 300.043 148.176 301.988 147.144C303.923 146.111 305.77 144.893 307.507 143.505" fill="#34DD5A"/>
<path d="M314.953 143.564C312.897 142.093 310.78 140.61 308.387 140.019C305.994 139.429 303.215 139.86 301.544 141.791C303.481 143.032 305.836 143.18 308.056 143.18C310.275 143.18 313.065 143.15 315.181 143.965" fill="#34DD5A"/>
<path d="M314.963 143.682C311.446 139.919 310.111 133.167 311.528 128.027C314.304 132.655 315.518 138.188 314.963 143.682Z" fill="#34DD5A"/>
<path d="M324.638 133.025C325.3 131.347 325.766 129.587 326.358 127.88C326.905 126.153 327.741 124.551 328.822 123.154C329.917 121.747 331.476 120.865 333.163 120.696C332.623 123.291 331.592 125.735 330.135 127.871C328.679 130.007 326.828 131.789 324.703 133.102" fill="#34DD5A"/>
<path d="M322.886 135.246C321.8 133.604 320.52 131.371 319.033 130.142C317.546 128.914 315.603 128.169 313.785 128.642C314.726 130.437 316.038 131.969 317.618 133.115C319.198 134.262 321.001 134.991 322.886 135.246Z" fill="#34DD5A"/>
<path d="M323.239 133.167C322.448 131.206 321.866 129.152 321.503 127.047C321.141 124.925 321.451 122.732 322.382 120.826C324.314 124.802 324.932 129.097 323.337 133.232" fill="#34DD5A"/>
<path d="M324.654 120.826C325.74 116.886 329.061 113.986 332.637 112.657C333.08 112.461 333.56 112.382 334.037 112.426C334.275 112.455 334.499 112.56 334.683 112.727C334.866 112.894 335 113.116 335.068 113.366C335.198 114.033 334.694 114.636 334.211 115.079C331.415 117.678 328.164 119.634 324.654 120.826Z" fill="#34DD5A"/>
<path d="M324.694 117.607C324.835 115.067 324.982 112.491 325.736 110.081C326.49 107.671 327.961 105.42 330.077 104.369C330.441 106.932 329.399 109.484 328.145 111.688C326.892 113.891 325.378 115.982 324.629 118.44" fill="#34DD5A"/>
<path d="M324.638 119.355C323.732 116.485 323.64 112.857 322.061 110.335C320.975 108.563 319.19 107.381 318.262 105.544C317.691 107.321 317.771 109.27 318.484 110.985C319.204 112.678 320.194 114.218 321.409 115.533C322.576 116.892 323.58 117.896 324.665 119.355" fill="#34DD5A"/>
<path d="M324.655 203.889C324.584 203.889 324.524 184.743 324.519 161.126C324.514 137.509 324.568 118.351 324.638 118.351C324.709 118.351 324.769 137.497 324.774 161.126C324.779 184.755 324.725 203.889 324.655 203.889Z" fill="#263238"/>
<path d="M340.012 146.529C339.799 146.64 339.577 146.731 339.35 146.801L337.527 147.468C335.996 148.059 333.885 148.863 331.595 149.879C329.305 150.895 327.194 151.798 325.979 152.945C325.493 153.387 325.107 153.945 324.85 154.575C324.676 155.024 324.644 155.296 324.622 155.29C324.6 155.284 324.622 155.225 324.622 155.089C324.649 154.9 324.693 154.714 324.752 154.534C324.977 153.868 325.35 153.273 325.838 152.803C326.571 152.124 327.392 151.567 328.274 151.149C329.251 150.658 330.331 150.139 331.481 149.625C333.777 148.603 335.899 147.805 337.451 147.262C338.227 147.002 338.861 146.807 339.301 146.671C339.533 146.599 339.771 146.552 340.012 146.529Z" fill="#263238"/>
<path d="M345.065 133.055C345.013 133.135 344.951 133.207 344.88 133.267L344.338 133.858L342.232 135.943L335.215 142.743C332.502 145.395 330.114 147.929 328.475 149.831C327.651 150.788 327.005 151.574 326.565 152.123L326.055 152.761C325.999 152.838 325.936 152.907 325.865 152.968C325.865 152.968 325.909 152.879 326.017 152.726C326.126 152.572 326.278 152.342 326.489 152.058C326.907 151.468 327.537 150.67 328.34 149.695C330.459 147.179 332.697 144.785 335.047 142.524C337.793 139.878 340.295 137.497 342.102 135.784L344.272 133.763C344.511 133.551 344.712 133.374 344.869 133.226C344.929 133.161 344.994 133.104 345.065 133.055Z" fill="#263238"/>
<path d="M332.242 145.424C332.166 145.395 332.741 143.954 333.327 142.134C333.914 140.315 334.174 138.785 334.245 138.796C334.183 139.97 333.954 141.126 333.566 142.223C333.322 143.007 333.038 143.777 332.714 144.527C332.596 144.848 332.437 145.15 332.242 145.424Z" fill="#263238"/>
<path d="M324.672 157.021C324.514 156.857 324.373 156.677 324.248 156.483L323.163 154.977C322.257 153.701 320.992 151.934 319.592 150.003C318.192 148.071 316.879 146.346 315.956 145.094L314.871 143.605C314.728 143.421 314.601 143.223 314.491 143.014C314.659 143.162 314.812 143.328 314.947 143.51C315.229 143.841 315.625 144.332 316.114 144.94C317.085 146.163 318.404 147.894 319.815 149.808C321.226 151.722 322.458 153.529 323.326 154.835C323.765 155.491 324.113 156.016 324.346 156.4C324.473 156.595 324.582 156.803 324.672 157.021Z" fill="#263238"/>
<path d="M321.302 152.306C320.62 151.489 320.133 150.501 319.886 149.43C319.624 148.491 319.515 147.509 319.566 146.529H319.68C319.631 146.748 319.593 146.866 319.571 146.86C319.55 146.854 319.571 146.736 319.571 146.505H319.68C319.738 147.461 319.889 148.408 320.13 149.329C320.45 150.353 320.842 151.349 321.302 152.306Z" fill="#263238"/>
<path d="M316.95 146.358C316.644 146.11 316.313 145.902 315.963 145.738C315.083 145.454 314.159 145.374 313.249 145.501C312.32 145.579 311.397 145.741 310.493 145.986C310.121 146.111 309.742 146.21 309.358 146.281C309.695 146.059 310.061 145.895 310.444 145.797C311.348 145.486 312.282 145.288 313.228 145.206C314.179 145.068 315.147 145.181 316.049 145.537C316.428 145.689 316.746 145.979 316.95 146.358Z" fill="#263238"/>
<path d="M315.918 144.905C315.918 144.946 315.343 144.657 314.404 144.314C311.962 143.404 309.347 143.187 306.807 143.682C305.83 143.871 305.244 144.066 305.228 144.024C305.352 143.94 305.487 143.877 305.629 143.835C306.002 143.695 306.383 143.578 306.769 143.487C309.341 142.876 312.022 143.098 314.48 144.125C314.852 144.279 315.214 144.459 315.565 144.662C315.693 144.724 315.812 144.805 315.918 144.905Z" fill="#263238"/>
<path d="M324.64 138.796C324.194 137.436 323.831 136.045 323.555 134.632C323.184 133.242 322.898 131.827 322.697 130.396C323.14 131.76 323.502 133.153 323.783 134.567C324.15 135.956 324.436 137.368 324.64 138.796Z" fill="#263238"/>
<path d="M324.709 138.796C324.354 137.937 323.946 137.104 323.488 136.304C322.968 135.55 322.363 134.871 321.687 134.283C321.943 134.353 322.18 134.486 322.381 134.673C322.892 135.079 323.336 135.576 323.694 136.144C324.239 136.917 324.588 137.831 324.709 138.796Z" fill="#263238"/>
<path d="M324.655 193.681C324.628 193.681 324.574 193.22 324.378 192.411C324.088 191.265 323.693 190.153 323.201 189.091C321.507 185.626 319.411 182.412 316.966 179.527C315.571 177.796 314.22 176.16 313.075 174.601C312.045 173.223 311.115 171.762 310.291 170.229C309.741 169.194 309.271 168.112 308.885 166.992C308.761 166.59 308.663 166.277 308.614 166.065C308.579 165.957 308.554 165.846 308.538 165.734C308.538 165.734 308.69 166.171 308.978 166.951C309.396 168.05 309.887 169.114 310.448 170.135C311.289 171.641 312.226 173.08 313.254 174.441C314.41 175.989 315.761 177.613 317.156 179.344C319.972 182.788 322.181 186.262 323.364 189.009C323.837 190.087 324.201 191.218 324.449 192.382C324.518 192.699 324.57 193.021 324.606 193.345C324.633 193.455 324.649 193.568 324.655 193.681Z" fill="#263238"/>
<path d="M338.547 176.603C338.32 176.774 338.084 176.932 337.842 177.076C337.184 177.48 336.553 177.934 335.953 178.435C335.069 179.184 334.239 180.007 333.473 180.898C332.6 181.902 331.704 183.06 330.787 184.306C328.958 186.805 327.249 189.032 326.223 190.804C325.681 191.685 325.323 192.423 325.078 192.937C324.962 193.213 324.828 193.479 324.677 193.735C324.677 193.735 324.677 193.658 324.742 193.51C324.807 193.362 324.872 193.156 324.986 192.89C325.307 192.138 325.669 191.408 326.071 190.704C327.46 188.428 328.969 186.243 330.592 184.159C331.509 182.912 332.415 181.743 333.305 180.744C334.089 179.855 334.941 179.039 335.85 178.305C336.465 177.812 337.117 177.378 337.798 177.005C338.043 176.875 338.238 176.792 338.341 176.733C338.444 176.674 338.542 176.591 338.547 176.603Z" fill="#263238"/>
<path d="M338.819 182.144C338.319 182.268 337.811 182.351 337.3 182.392C336.065 182.533 334.844 182.796 333.653 183.178C332.477 183.592 331.376 184.224 330.397 185.045C329.643 185.677 329.285 186.226 329.252 186.167C329.308 186.026 329.385 185.897 329.48 185.783C329.718 185.456 329.987 185.157 330.283 184.891C331.256 184.007 332.376 183.335 333.582 182.912C334.79 182.518 336.036 182.279 337.294 182.198C337.8 182.129 338.31 182.111 338.819 182.144Z" fill="#263238"/>
<path d="M329.669 185.553C329.587 185.506 330.282 184.371 330.819 182.8C331.356 181.229 331.443 179.846 331.53 179.882C331.577 180.179 331.577 180.483 331.53 180.78C331.45 181.5 331.299 182.209 331.08 182.895C330.845 183.575 330.544 184.226 330.184 184.838C329.891 185.305 329.701 185.576 329.669 185.553Z" fill="#263238"/>
<path d="M343.045 161.717C342.965 161.771 342.882 161.818 342.795 161.859L342.074 162.213C341.759 162.361 341.373 162.55 340.939 162.804C340.505 163.058 340.001 163.3 339.469 163.649L338.628 164.168C338.34 164.346 338.052 164.564 337.743 164.759C337.124 165.173 336.506 165.675 335.844 166.189C334.435 167.346 333.107 168.615 331.871 169.987C330.656 171.377 329.535 172.862 328.518 174.429C328.067 175.168 327.628 175.859 327.275 176.55C327.096 176.887 326.906 177.212 326.732 177.531C326.559 177.85 326.429 178.169 326.282 178.464C325.984 179.055 325.772 179.61 325.56 180.095C325.349 180.579 325.186 180.998 325.061 181.347C324.936 181.695 324.838 181.938 324.757 182.144C324.727 182.24 324.687 182.331 324.638 182.416C324.65 182.316 324.676 182.219 324.714 182.127C324.779 181.908 324.866 181.642 324.969 181.306C325.072 180.969 325.229 180.52 325.43 180.03C325.631 179.539 325.832 178.972 326.119 178.376L326.559 177.43C326.711 177.105 326.901 176.781 327.101 176.432C327.454 175.735 327.888 175.032 328.339 174.288C329.349 172.696 330.472 171.193 331.698 169.792C332.945 168.414 334.285 167.141 335.708 165.982C336.381 165.468 337.01 164.972 337.635 164.57C337.949 164.363 338.242 164.151 338.535 163.979C338.828 163.808 339.116 163.637 339.387 163.471C339.93 163.141 340.44 162.881 340.885 162.668C341.261 162.465 341.647 162.283 342.041 162.125L342.784 161.811C342.866 161.764 342.954 161.732 343.045 161.717Z" fill="#263238"/>
<path d="M332.052 169.745C332.153 169.357 332.364 169.014 332.654 168.764C333.332 168.126 334.194 167.766 335.091 167.748C335.969 167.745 336.839 167.93 337.652 168.292C337.997 168.411 338.324 168.584 338.623 168.805C338.273 168.733 337.929 168.624 337.598 168.481C336.795 168.179 335.951 168.025 335.102 168.026C334.258 168.043 333.443 168.353 332.773 168.912C332.514 169.17 332.273 169.448 332.052 169.745Z" fill="#263238"/>
<path d="M330.407 171.588C331.145 170.049 331.338 168.268 330.95 166.584C331.097 166.794 331.196 167.039 331.238 167.299C331.384 167.91 331.425 168.545 331.357 169.172C331.288 169.793 331.114 170.394 330.841 170.944C330.619 171.393 330.434 171.612 330.407 171.588Z" fill="#263238"/>
<path d="M312.505 196.428C312.885 203.747 314.909 211.197 318.024 218.711H331.59C334.564 211.261 336.447 203.83 336.784 196.428H312.505Z" fill="#455A64"/>
<path d="M334.586 208.266C334.586 208.343 330.12 208.408 324.618 208.408C319.115 208.408 314.654 208.343 314.654 208.266C314.654 208.19 319.115 208.131 324.618 208.131C330.12 208.131 334.586 208.196 334.586 208.266Z" fill="#FAFAFA"/>
<path d="M334.271 210.919C334.271 210.996 330.087 211.061 324.926 211.061C319.765 211.061 315.587 210.996 315.587 210.919C315.587 210.842 319.771 210.783 324.926 210.783C330.082 210.783 334.271 210.842 334.271 210.919Z" fill="#FAFAFA"/>
<path d="M274.264 65.014H81.4115C77.0448 65.014 73.5049 68.8675 73.5049 73.621V206.618C73.5049 211.372 77.0448 215.225 81.4115 215.225H274.264C278.63 215.225 282.17 211.372 282.17 206.618V73.621C282.17 68.8675 278.63 65.014 274.264 65.014Z" fill="#455A64"/>
<path d="M65.3486 205.525H291.423V208.154C291.423 210.943 290.405 213.617 288.594 215.589C286.782 217.561 284.325 218.669 281.763 218.669H75.0081C72.4462 218.669 69.9893 217.561 68.1778 215.589C66.3663 213.617 65.3486 210.943 65.3486 208.154V205.525Z" fill="#455A64"/>
<path d="M275.982 70.9805H79.1035V197.828H275.982V70.9805Z" fill="#263238"/>
<path d="M157.27 204.114L160.07 208.975H199.549L202.153 204.114H157.27Z" fill="#263238"/>
<path d="M270.562 75.275H84.9386C83.9585 75.275 83.1641 76.1399 83.1641 77.2067V195.495C83.1641 196.562 83.9585 197.426 84.9386 197.426H270.562C271.542 197.426 272.337 196.562 272.337 195.495V77.2067C272.337 76.1399 271.542 75.275 270.562 75.275Z" fill="#EBEBEB"/>
<path d="M272.131 197.604H82.958L83.1642 84.4077H272.131V197.604Z" fill="#FAFAFA"/>
<path d="M98.6784 79.995C98.6795 80.3212 98.5916 80.6405 98.4259 80.9123C98.2602 81.1841 98.0241 81.3963 97.7476 81.5219C97.471 81.6476 97.1664 81.681 96.8724 81.6181C96.5783 81.5552 96.308 81.3987 96.0958 81.1684C95.8835 80.9382 95.7387 80.6445 95.6799 80.3246C95.621 80.0048 95.6507 79.6731 95.7651 79.3716C95.8796 79.0701 96.0736 78.8123 96.3227 78.631C96.5718 78.4496 96.8647 78.3528 97.1644 78.3528C97.363 78.352 97.5597 78.3939 97.7434 78.4761C97.9271 78.5583 98.094 78.6791 98.2347 78.8317C98.3753 78.9843 98.4869 79.1656 98.5631 79.3652C98.6392 79.5648 98.6784 79.7789 98.6784 79.995Z" fill="#263238"/>
<path d="M89.5193 79.995C89.5203 80.3215 89.4323 80.641 89.2664 80.9129C89.1004 81.1848 88.864 81.397 88.5871 81.5225C88.3103 81.648 88.0054 81.6811 87.7112 81.6177C87.417 81.5543 87.1467 81.3972 86.9347 81.1663C86.7226 80.9355 86.5783 80.6413 86.52 80.321C86.4618 80.0008 86.4922 79.6689 86.6075 79.3675C86.7228 79.0661 86.9177 78.8087 87.1675 78.6281C87.4173 78.4474 87.7108 78.3516 88.0107 78.3528C88.209 78.352 88.4055 78.394 88.5888 78.4762C88.7722 78.5585 88.9388 78.6794 89.079 78.8321C89.2192 78.9847 89.3303 79.166 89.4059 79.3656C89.4815 79.5652 89.52 79.7791 89.5193 79.995Z" fill="#263238"/>
<path d="M93.9148 79.995C93.9159 80.3215 93.8278 80.641 93.6619 80.9129C93.4959 81.1848 93.2595 81.397 92.9827 81.5225C92.7058 81.648 92.4009 81.6811 92.1067 81.6177C91.8125 81.5543 91.5422 81.3972 91.3302 81.1663C91.1181 80.9355 90.9738 80.6413 90.9155 80.321C90.8573 80.0008 90.8877 79.6689 91.003 79.3675C91.1183 79.0661 91.3132 78.8087 91.563 78.6281C91.8128 78.4474 92.1063 78.3516 92.4062 78.3528C92.6045 78.352 92.801 78.394 92.9843 78.4762C93.1677 78.5585 93.3343 78.6794 93.4745 78.8321C93.6147 78.9847 93.7258 79.166 93.8014 79.3656C93.877 79.5652 93.9155 79.7791 93.9148 79.995Z" fill="#263238"/>
<path d="M280.374 204.114C280.374 204.196 234.063 204.261 176.948 204.261C119.832 204.261 73.5049 204.196 73.5049 204.114C73.5049 204.031 119.81 203.966 176.948 203.966C234.085 203.966 280.374 204.037 280.374 204.114Z" fill="#263238"/>
<path d="M143.735 128.624L220.701 127.844L222.954 184.797L143.258 184.176L143.735 128.624Z" fill="#96ABC6"/>
<path d="M143.735 128.636L180.094 96.4704C180.841 95.8094 181.774 95.4485 182.737 95.4485C183.699 95.4485 184.633 95.8094 185.379 96.4704L220.696 127.85" fill="#96ABC6"/>
<g opacity="0.3">
<path d="M143.735 128.636L180.094 96.4704C180.841 95.8094 181.774 95.4485 182.737 95.4485C183.699 95.4485 184.633 95.8094 185.379 96.4704L220.696 127.85" fill="#121212"/>
</g>
<path d="M143.259 184.164C143.167 184.064 149.31 176.727 156.988 167.778C164.667 158.828 170.973 151.674 171.07 151.757C171.168 151.84 165.02 159.188 157.336 168.144C149.651 177.099 143.357 184.271 143.259 184.164Z" fill="#263238"/>
<path d="M222.955 184.797C222.857 184.897 216.844 177.708 209.524 168.806C202.203 159.903 196.348 152.56 196.446 152.466C196.543 152.371 202.556 159.555 209.882 168.463C217.208 177.371 223.052 184.702 222.955 184.797Z" fill="#263238"/>
<g opacity="0.5">
<path d="M220.701 127.844L182.118 161.54L143.735 128.624" fill="#121212"/>
</g>
<path d="M147.622 131.731L147.448 105.562L214.842 104.546L215.65 132.074L182.114 161.096L147.622 131.731Z" fill="#FAFAFA"/>
<path d="M147.621 131.731C147.621 131.731 147.843 131.902 148.261 132.251L150.095 133.793L157.074 139.7C163.087 144.81 171.726 152.106 182.183 161.014H182.042L215.563 131.967L215.514 132.092C215.356 126.84 215.194 121.328 215.031 115.722C214.917 111.948 214.808 108.214 214.7 104.558L214.841 104.705L147.453 105.674L147.54 105.574C147.572 113.802 147.605 120.342 147.621 124.82C147.621 127.059 147.621 128.783 147.621 129.959C147.621 130.55 147.621 130.981 147.621 131.288C147.621 131.595 147.621 131.743 147.621 131.743C147.621 131.743 147.621 131.595 147.621 131.3C147.621 131.005 147.621 130.556 147.621 129.983C147.621 128.801 147.588 127.088 147.567 124.855C147.529 120.36 147.469 113.82 147.398 105.574V105.479H147.485L214.835 104.416H214.976V104.569C215.085 108.226 215.194 111.953 215.308 115.728C215.47 121.334 215.633 126.846 215.785 132.097V132.174L215.731 132.221L182.172 161.226L182.102 161.291L182.031 161.226L156.949 139.801L150.025 133.858L148.218 132.298L147.621 131.731Z" fill="#263238"/>
<path d="M204.216 117.743C204.216 117.825 193.906 117.985 181.197 118.097C168.487 118.209 158.177 118.233 158.177 118.15C158.177 118.068 168.487 117.908 181.197 117.79C193.906 117.672 204.216 117.654 204.216 117.743Z" fill="#263238"/>
<path d="M204.228 125.133C204.228 125.216 193.917 125.381 181.213 125.493C168.509 125.605 158.193 125.629 158.193 125.54C158.193 125.452 168.504 125.298 181.213 125.186C193.922 125.074 204.228 125.05 204.228 125.133Z" fill="#263238"/>
<path d="M204.244 133.651C204.244 133.74 193.934 133.899 181.23 134.012C168.526 134.124 158.21 134.147 158.21 134.059C158.21 133.97 168.521 133.817 181.23 133.704C193.939 133.592 204.244 133.568 204.244 133.651Z" fill="#263238"/>
<path d="M204.26 142.169C204.26 142.258 194.432 142.412 182.303 142.518C170.175 142.624 160.342 142.648 160.342 142.559C160.342 142.471 170.169 142.317 182.303 142.211C194.437 142.104 204.26 142.087 204.26 142.169Z" fill="#263238"/>
<path d="M195.663 149.666C195.575 149.693 195.483 149.705 195.392 149.701L194.616 149.737L191.772 149.813L182.379 150.002C178.71 150.073 175.384 150.097 172.98 150.097H170.136H169.36C169.269 150.1 169.178 150.09 169.089 150.067C169.177 150.041 169.269 150.029 169.36 150.032L170.131 149.997L172.98 149.92L182.373 149.737C186.042 149.66 189.363 149.636 191.767 149.636H194.616H195.392C195.483 149.636 195.574 149.646 195.663 149.666Z" fill="#263238"/>
<path d="M186.981 156.873C185.357 157.032 183.726 157.087 182.097 157.038C180.468 157.094 178.837 157.047 177.213 156.896C178.837 156.741 180.467 156.685 182.097 156.731C183.726 156.678 185.357 156.726 186.981 156.873Z" fill="#263238"/>
<path d="M362.806 218.161C362.806 218.25 281.656 218.315 181.556 218.315C81.4557 218.315 0.305664 218.25 0.305664 218.161C0.305664 218.072 81.4395 218.007 181.556 218.007C281.672 218.007 362.806 218.078 362.806 218.161Z" fill="#263238"/>
<path d="M196.076 104.316C196.152 104.316 196.184 104.658 196.146 105.066C196.108 105.473 196.016 105.792 195.94 105.786C195.864 105.781 195.831 105.438 195.869 105.03C195.907 104.623 195.994 104.304 196.076 104.316Z" fill="#263238"/>
<path d="M196.798 98.5616C196.87 99.0454 196.849 99.5399 196.739 100.015C196.713 100.506 196.597 100.986 196.397 101.427C196.341 100.451 196.478 99.4746 196.798 98.5616Z" fill="#263238"/>
<path d="M197.861 92.8671C197.905 93.3573 197.855 93.8522 197.714 94.3203C197.659 94.8079 197.513 95.2782 197.285 95.7026C197.242 95.2139 197.294 94.7207 197.437 94.2553C197.488 93.7655 197.632 93.2927 197.861 92.8671Z" fill="#263238"/>
<path d="M199.309 87.2847C199.238 88.2621 198.973 89.2112 198.533 90.067C198.528 89.5746 198.615 89.0862 198.788 88.6315C198.872 88.1474 199.05 87.6883 199.309 87.2847Z" fill="#263238"/>
<path d="M201.17 81.8381C201.138 82.3287 201.014 82.8071 200.807 83.2441C200.683 83.7178 200.471 84.1584 200.183 84.5378C200.218 84.0533 200.341 83.5814 200.546 83.1496C200.666 82.669 200.879 82.2219 201.17 81.8381Z" fill="#263238"/>
<path d="M203.484 76.6101C203.249 77.5536 202.835 78.4329 202.269 79.1916C202.341 78.7072 202.506 78.2445 202.752 77.8329C203.088 77.1181 203.414 76.5687 203.484 76.6101Z" fill="#263238"/>
<path d="M206.273 71.6598C206.148 72.1328 205.935 72.573 205.649 72.9535C205.258 73.627 204.883 74.135 204.818 74.0936C204.927 73.6153 205.129 73.1681 205.41 72.7822C205.822 72.1147 206.208 71.6126 206.273 71.6598Z" fill="#263238"/>
<path d="M209.561 67.0875C209.391 67.5431 209.138 67.9569 208.818 68.3044C208.346 68.8951 207.917 69.3736 207.852 69.3204C207.787 69.2673 208.123 68.7297 208.601 68.1094C209.078 67.4892 209.502 67.0343 209.561 67.0875Z" fill="#263238"/>
<path d="M213.316 62.9701C213.371 63.0351 212.98 63.5313 212.448 64.0807C211.916 64.6301 211.439 65.0259 211.363 64.9668C211.287 64.9077 211.694 64.4115 212.231 63.8562C212.768 63.3009 213.267 62.9051 213.316 62.9701Z" fill="#263238"/>
<path d="M217.515 59.3903C217.558 59.4611 217.113 59.9042 216.522 60.3768C216.187 60.7046 215.793 60.9539 215.366 61.1093C215.317 61.0443 215.762 60.6013 216.359 60.1287C216.692 59.7965 217.086 59.5449 217.515 59.3903Z" fill="#263238"/>
<path d="M222.118 56.4543C221.434 57.0913 220.633 57.5625 219.769 57.8367C219.731 57.7599 220.224 57.3936 220.854 57.0096C221.234 56.728 221.665 56.5387 222.118 56.4543Z" fill="#263238"/>
<path d="M227.056 54.2687C226.697 54.5666 226.288 54.7835 225.851 54.9067C225.444 55.1211 225.001 55.2399 224.549 55.2552C224.906 54.9552 225.316 54.7381 225.754 54.6172C226.159 54.4 226.604 54.2811 227.056 54.2687Z" fill="#263238"/>
<path d="M232.244 52.9514C231.843 53.1736 231.406 53.3062 230.957 53.3413C230.528 53.4901 230.076 53.5404 229.628 53.489C230.444 53.0721 231.344 52.8871 232.244 52.9514Z" fill="#263238"/>
<path d="M237.567 52.6325C237.139 52.7859 236.686 52.8422 236.237 52.7979C235.788 52.8566 235.333 52.8102 234.902 52.662C235.33 52.5069 235.783 52.4486 236.232 52.4907C236.681 52.4337 237.136 52.4821 237.567 52.6325Z" fill="#263238"/>
<path d="M242.875 53.3117C242.427 53.3846 241.971 53.3565 241.534 53.229C241.082 53.2017 240.64 53.0708 240.237 52.845C241.137 52.7982 242.035 52.9572 242.875 53.3117Z" fill="#263238"/>
<path d="M247.972 54.9716C247.077 54.8527 246.217 54.5264 245.448 54.0146C245.9 54.03 246.344 54.1425 246.756 54.3455C247.197 54.4583 247.612 54.6717 247.972 54.9716Z" fill="#263238"/>
<path d="M252.719 57.6063C252.278 57.5006 251.861 57.2997 251.493 57.0156C251.081 56.8142 250.711 56.5227 250.407 56.1591C250.849 56.2612 251.267 56.4624 251.634 56.7498C252.274 57.1574 252.762 57.5355 252.719 57.6063Z" fill="#263238"/>
<path d="M256.897 61.1979C256.487 60.9971 256.119 60.71 255.812 60.3532C255.269 59.8334 254.856 59.349 254.905 59.284C254.954 59.219 255.448 59.5912 255.991 60.1228C256.533 60.6545 256.951 61.1389 256.897 61.1979Z" fill="#263238"/>
<path d="M259.535 64.5061C259.469 64.5534 259.236 64.3348 258.992 64.0158C258.748 63.6968 258.628 63.3955 258.688 63.3365C258.748 63.2774 258.981 63.5019 259.231 63.8268C259.48 64.1517 259.6 64.453 259.535 64.5061Z" fill="#263238"/>
<path d="M284.628 100.098C284.173 100.034 283.736 99.8695 283.342 99.6132C282.658 99.2706 282.132 98.928 282.17 98.8512C282.625 98.9198 283.064 99.0843 283.461 99.3356C283.893 99.5017 284.29 99.7608 284.628 100.098Z" fill="#263238"/>
<path d="M289.751 102.053C288.841 101.964 287.958 101.67 287.157 101.19C288.068 101.277 288.952 101.57 289.751 102.053Z" fill="#263238"/>
<path d="M295.106 102.969C294.655 103.071 294.19 103.071 293.739 102.969C293.28 102.966 292.828 102.859 292.409 102.656C292.859 102.557 293.322 102.557 293.771 102.656C294.231 102.661 294.685 102.767 295.106 102.969Z" fill="#263238"/>
<path d="M300.523 102.785C300.097 102.97 299.641 103.059 299.183 103.045C298.73 103.137 298.263 103.123 297.815 103.004C298.244 102.821 298.701 102.731 299.161 102.738C299.613 102.651 300.077 102.667 300.523 102.785Z" fill="#263238"/>
<path d="M305.852 101.699C305.458 101.955 305.021 102.123 304.566 102.195C304.126 102.344 303.663 102.394 303.204 102.342C303.606 102.101 304.049 101.95 304.507 101.899C304.938 101.732 305.396 101.663 305.852 101.699Z" fill="#263238"/>
<path d="M310.887 99.5187C310.925 99.5955 310.398 99.9322 309.714 100.281C309.319 100.536 308.879 100.697 308.423 100.753C309.157 100.16 309.996 99.7401 310.887 99.5187Z" fill="#263238"/>
<path d="M315.386 96.2283C315.435 96.2933 315.011 96.7777 314.409 97.2739C314.07 97.6144 313.663 97.8651 313.221 98.0064C313.177 97.9355 313.644 97.5161 314.241 97.0317C314.575 96.6909 314.963 96.4188 315.386 96.2283Z" fill="#263238"/>
<path d="M319.077 91.9159C318.929 92.394 318.682 92.8286 318.355 93.186C317.872 93.8181 317.405 94.2552 317.351 94.1961C317.297 94.1371 317.666 93.6054 318.138 93.0147C318.61 92.4239 319.012 91.8686 319.077 91.9159Z" fill="#263238"/>
<path d="M321.616 86.694C321.599 87.1982 321.47 87.6904 321.242 88.1294C321.092 88.606 320.843 89.0385 320.515 89.3936C320.596 88.9033 320.754 88.4317 320.981 87.9995C321.125 87.5291 321.34 87.0879 321.616 86.694Z" fill="#263238"/>
<path d="M322.647 80.9402C322.777 81.4239 322.797 81.9347 322.706 82.4288C322.706 82.9341 322.59 83.4313 322.37 83.8761C322.315 83.3839 322.333 82.8852 322.424 82.3993C322.424 81.9029 322.499 81.4098 322.647 80.9402Z" fill="#263238"/>
<path d="M321.838 75.1156C322.099 75.5323 322.266 76.0098 322.326 76.5097C322.473 76.9869 322.512 77.4954 322.44 77.9925C322.238 77.5492 322.106 77.0719 322.05 76.5806C321.905 76.1085 321.833 75.6133 321.838 75.1156Z" fill="#263238"/>
<path d="M319.478 69.8227C319.537 69.7695 319.95 70.2775 320.33 71.0041C320.6 71.4106 320.776 71.8832 320.84 72.3805C320.769 72.4219 320.454 71.8548 320.085 71.1577C319.817 70.752 319.612 70.3009 319.478 69.8227Z" fill="#263238"/>
<path d="M315.712 65.6049C316.152 65.7656 316.549 66.0414 316.868 66.4083C317.443 66.9458 317.817 67.4775 317.763 67.5366C317.709 67.5956 317.22 67.1644 316.678 66.6386C316.135 66.1129 315.668 65.6757 315.712 65.6049Z" fill="#263238"/>
<path d="M310.79 63.2065C311.254 63.1591 311.721 63.2425 312.147 63.4487C312.599 63.562 313.018 63.7954 313.368 64.1281C312.915 64.0753 312.474 63.9436 312.06 63.7382C311.614 63.633 311.186 63.4536 310.79 63.2065Z" fill="#263238"/>
<path d="M305.412 63.3069C305.807 63.0388 306.26 62.8899 306.725 62.8756C307.179 62.7629 307.652 62.7792 308.098 62.9229C307.207 63.143 306.298 63.2716 305.385 63.3069H305.412Z" fill="#263238"/>
<path d="M300.734 66.1542C300.674 66.1011 301.049 65.5635 301.662 65.0496C302.006 64.7053 302.43 64.4704 302.888 64.3702C302.926 64.4529 302.416 64.8133 301.803 65.2977C301.19 65.7821 300.793 66.2133 300.734 66.1542Z" fill="#263238"/>
<path d="M298.585 71.4589C298.482 70.9623 298.511 70.4442 298.667 69.9643C298.73 69.4586 298.928 68.9842 299.236 68.5997C299.188 69.0891 299.088 69.5708 298.938 70.0352C298.878 70.5244 298.759 71.003 298.585 71.4589Z" fill="#263238"/>
<path d="M299.644 77.1831C299.323 76.8167 299.096 76.3643 298.987 75.8717C298.789 75.4113 298.71 74.9006 298.759 74.3949C298.982 74.8264 299.148 75.2897 299.253 75.7713C299.446 76.2188 299.577 76.6944 299.644 77.1831Z" fill="#263238"/>
<path d="M303.192 81.5782C302.747 81.4278 302.345 81.1551 302.025 80.7866C301.45 80.2432 301.097 79.6879 301.157 79.6347C301.217 79.5815 301.656 80.0246 302.21 80.5562C302.763 81.0879 303.235 81.5073 303.192 81.5782Z" fill="#263238"/>
<path d="M308.12 83.9825C307.657 84.0098 307.195 83.9145 306.774 83.7049C306.321 83.5945 305.9 83.3607 305.553 83.0255C306.005 83.0783 306.447 83.21 306.861 83.4154C307.307 83.525 307.733 83.7168 308.12 83.9825Z" fill="#263238"/>
<path d="M313.503 84.5378C312.611 84.7884 311.672 84.7659 310.79 84.4728C311.236 84.3709 311.694 84.347 312.147 84.4019C312.603 84.3614 313.062 84.4074 313.503 84.5378Z" fill="#263238"/>
<path d="M318.848 83.4626C318.05 83.9614 317.142 84.2146 316.222 84.1952C316.622 83.9584 317.057 83.8004 317.508 83.7285C317.938 83.5599 318.391 83.4701 318.848 83.4626Z" fill="#263238"/>
<path d="M323.733 81.0111C323.41 81.3674 323.024 81.6487 322.598 81.8381C322.216 82.1152 321.786 82.3042 321.334 82.3934C322.037 81.757 322.854 81.2863 323.733 81.0111Z" fill="#263238"/>
<path d="M328.073 77.4904C328.127 77.5553 327.699 78.0279 327.118 78.5478C326.791 78.8998 326.404 79.1788 325.978 79.3689C325.93 79.298 326.364 78.8254 326.939 78.3115C327.265 77.9611 327.65 77.6823 328.073 77.4904Z" fill="#263238"/>
<path d="M331.791 73.1721C331.85 73.2252 331.503 73.7628 331.015 74.3949C330.526 75.027 330.081 75.4759 330.027 75.4169C329.973 75.3578 330.315 74.8261 330.798 74.194C331.281 73.562 331.726 73.1071 331.791 73.1721Z" fill="#263238"/>
<path d="M334.771 68.2454C334.666 68.7328 334.47 69.1913 334.195 69.5923C333.805 70.2953 333.441 70.8269 333.376 70.7738C333.481 70.2867 333.677 69.8283 333.951 69.4269C334.336 68.7357 334.7 68.2041 334.771 68.2454Z" fill="#263238"/>
<path d="M336.974 62.8462C336.941 63.3461 336.817 63.8339 336.61 64.2817C336.49 64.7655 336.271 65.2137 335.97 65.5931C336.016 65.0982 336.143 64.6162 336.344 64.1694C336.47 63.6866 336.684 63.2365 336.974 62.8462Z" fill="#263238"/>
<path d="M338.488 57.1575C338.515 57.6557 338.447 58.1547 338.287 58.6225C338.216 59.1176 338.054 59.5919 337.81 60.0166C337.848 59.0222 338.079 58.0478 338.488 57.1575Z" fill="#263238"/>
<path d="M339.437 51.3682C339.511 51.8619 339.489 52.3672 339.371 52.8509C339.347 53.3495 339.231 53.8376 339.03 54.2864C338.955 53.7927 338.977 53.2873 339.095 52.8036C339.12 52.3052 339.236 51.8173 339.437 51.3682Z" fill="#263238"/>
<path d="M339.936 45.4845C340.062 46.4734 339.993 47.4802 339.735 48.4382C339.633 47.9495 339.62 47.4436 339.697 46.9495C339.685 46.4487 339.767 45.9504 339.936 45.4845Z" fill="#263238"/>
<path d="M340.109 39.583C340.242 40.061 340.281 40.5643 340.223 41.0598C340.263 41.5595 340.206 42.0629 340.054 42.5367C339.929 42.0551 339.89 41.5515 339.94 41.0539C339.907 40.5563 339.964 40.0564 340.109 39.583Z" fill="#263238"/>
<path d="M340.072 33.6758C340.217 34.151 340.272 34.6534 340.234 35.1526C340.289 35.649 340.246 36.1523 340.11 36.6294C339.965 36.1541 339.909 35.6518 339.947 35.1526C339.899 34.6562 339.941 34.1543 340.072 33.6758Z" fill="#263238"/>
<path d="M340.011 30.0428C340.087 30.0428 340.158 30.1905 340.163 30.3796C340.168 30.5686 340.109 30.7163 340.027 30.7222C339.946 30.7281 339.881 30.5745 339.881 30.3855C339.881 30.1964 339.913 30.0428 340.011 30.0428Z" fill="#263238"/>
<path d="M351.881 12.502L314.996 16.8639L317.697 43.9314L354.582 39.5695L351.881 12.502Z" fill="#96ABC6"/>
<path d="M317.681 43.9604L314.968 16.8813L351.869 12.5217L354.582 39.6068L317.681 43.9604ZM315.011 16.8931L317.725 43.9309L354.582 39.5713L351.869 12.5335L315.011 16.8931Z" fill="#263238"/>
<path d="M352.032 12.8524C351.941 12.9967 351.837 13.1312 351.723 13.2541L350.795 14.3588L347.327 18.3639L335.774 31.49L335.682 31.6022L335.562 31.5195L335.28 31.3246L321.019 21.3944L316.678 18.3521L315.516 17.5074C315.377 17.4142 315.245 17.3095 315.12 17.1943C315.272 17.2609 315.418 17.344 315.554 17.4424L316.748 18.2281L321.089 21.1817L335.421 31.0233L335.703 31.2182H335.492L347.159 18.169L350.703 14.2465L351.674 13.195C351.784 13.0693 351.904 12.9546 352.032 12.8524Z" fill="#263238"/>
<path d="M317.844 44.2558C317.768 44.2026 320.172 40.162 323.21 35.2413C326.249 30.3205 328.784 26.3803 328.86 26.4275C328.936 26.4748 326.537 30.5213 323.493 35.4421C320.448 40.3629 317.92 44.3149 317.844 44.2558Z" fill="#263238"/>
<path d="M341.097 24.6671C341.168 24.5962 344.277 27.9575 348.043 32.1694C351.809 36.3813 354.81 39.8489 354.745 39.9257C354.68 40.0025 351.571 36.6412 347.799 32.4234C344.027 28.2056 341.021 24.7085 341.097 24.6671Z" fill="#263238"/>
<path d="M183.439 94.5802C183.515 94.5802 183.629 94.8815 183.694 95.2832C183.759 95.6849 183.743 96.0216 183.667 96.0393C183.591 96.057 183.477 95.738 183.412 95.3304C183.347 94.9228 183.363 94.592 183.439 94.5802Z" fill="#263238"/>
<path d="M182.572 88.8146C182.776 89.2564 182.896 89.7387 182.924 90.2323C183.041 90.7099 183.067 91.2085 183 91.6973C182.792 91.2571 182.672 90.774 182.648 90.2796C182.53 89.8021 182.504 89.3034 182.572 88.8146Z" fill="#263238"/>
<path d="M181.796 83.0372C181.995 83.4819 182.106 83.9668 182.122 84.4609C182.229 84.9406 182.246 85.439 182.171 85.9259C181.97 85.4823 181.858 84.9967 181.845 84.5022C181.738 84.0225 181.721 83.5241 181.796 83.0372Z" fill="#263238"/>
<path d="M181.187 77.2422C181.369 77.6951 181.465 78.1834 181.469 78.6777C181.565 79.1604 181.565 79.6599 181.469 80.1427C181.288 79.6898 181.193 79.2012 181.192 78.7072C181.097 78.2246 181.095 77.7256 181.187 77.2422Z" fill="#263238"/>
<path d="M180.812 71.4058C181.05 72.3561 181.102 73.3504 180.964 74.324C180.725 73.3737 180.674 72.3793 180.812 71.4058Z" fill="#263238"/>
<path d="M180.759 65.5635C180.947 66.5374 180.947 67.5432 180.759 68.5171C180.618 68.0469 180.572 67.5494 180.623 67.058C180.57 66.555 180.616 66.0454 180.759 65.5635Z" fill="#263238"/>
<path d="M181.095 59.7388C181.193 60.2223 181.203 60.7223 181.122 61.2097C181.13 61.7036 181.045 62.1941 180.873 62.6511C180.767 62.1707 180.756 61.6714 180.84 61.1861C180.832 60.6896 180.919 60.1967 181.095 59.7388Z" fill="#263238"/>
<path d="M181.898 53.9673C181.965 54.4572 181.933 54.9568 181.806 55.4323C181.773 55.9262 181.646 56.4072 181.432 56.8441C181.405 55.8605 181.563 54.8813 181.898 53.9673Z" fill="#263238"/>
<path d="M183.271 48.3259C183.277 48.8197 183.192 49.3098 183.022 49.7673C182.934 50.2528 182.759 50.7146 182.506 51.126C182.494 50.6303 182.577 50.1372 182.75 49.6787C182.834 49.1925 183.011 48.7313 183.271 48.3259Z" fill="#263238"/>
<path d="M185.273 42.9089C185.226 43.4016 185.086 43.8784 184.861 44.309C184.72 44.7789 184.493 45.2129 184.193 45.585C184.38 44.6205 184.75 43.7091 185.279 42.9089H185.273Z" fill="#263238"/>
<path d="M187.889 37.8168C187.783 38.2973 187.59 38.7495 187.319 39.1459C186.939 39.8312 186.575 40.3274 186.505 40.3274C186.612 39.8465 186.808 39.3943 187.08 38.9983C187.46 38.2953 187.824 37.7695 187.889 37.8168Z" fill="#263238"/>
<path d="M191.107 33.1441C191.167 33.2032 190.841 33.7349 190.38 34.3788C189.919 35.0227 189.49 35.4716 189.425 35.4185C189.591 34.9577 189.84 34.5379 190.157 34.1838C190.624 33.5577 191.053 33.091 191.107 33.1441Z" fill="#263238"/>
<path d="M194.922 29.0386C194.971 29.1095 194.569 29.5998 194.027 30.1432C193.484 30.6867 192.996 31.0707 192.941 31.0116C192.887 30.9525 193.289 30.4622 193.837 29.9128C194.385 29.3635 194.873 28.9736 194.922 29.0386Z" fill="#263238"/>
<path d="M199.307 25.6831C199.345 25.7599 198.873 26.1675 198.249 26.5987C197.893 26.905 197.482 27.1282 197.044 27.2544C197 27.1895 197.472 26.776 198.097 26.3388C198.456 26.0353 198.867 25.8124 199.307 25.6831Z" fill="#263238"/>
<path d="M204.192 23.2908C203.839 23.604 203.431 23.8334 202.992 23.9642C202.589 24.1902 202.148 24.323 201.695 24.3541C202.048 24.0421 202.456 23.8128 202.895 23.6807C203.297 23.4538 203.739 23.321 204.192 23.2908Z" fill="#263238"/>
<path d="M208.109 22.2392C208.109 22.3219 207.838 22.4518 207.475 22.5286C207.111 22.6054 206.796 22.5995 206.78 22.5286C206.764 22.4577 207.051 22.3159 207.42 22.2392C207.789 22.1624 208.099 22.1565 208.109 22.2392Z" fill="#263238"/>
<path d="M179.242 0.0591741L169.435 27.6686L207.061 43.5064L216.868 15.897L179.242 0.0591741Z" fill="#96ABC6"/>
<path d="M207.061 43.5292L169.422 27.6798L179.239 0.057251L216.878 15.9007L207.061 43.5292ZM169.454 27.6621L207.061 43.4878L216.862 15.9066L179.255 0.0808808L169.454 27.6621Z" fill="#263238"/>
<path d="M216.872 16.2847C216.72 16.3747 216.56 16.448 216.395 16.5033L214.989 17.0586L209.807 19.0434L192.615 25.4706L192.474 25.5237L192.398 25.382L192.214 25.0393L182.988 7.68955L180.226 2.40842L179.494 0.961126C179.399 0.796811 179.319 0.622689 179.255 0.441284C179.367 0.590862 179.467 0.750985 179.553 0.919775L180.351 2.33162L183.184 7.53596C185.593 11.9901 188.882 18.0923 192.512 24.8267L192.697 25.1693L192.48 25.0807L209.726 18.7599L214.946 16.8991L216.373 16.4087C216.535 16.3479 216.702 16.3064 216.872 16.2847Z" fill="#263238"/>
<path d="M169.439 28.052C169.39 27.9574 173.563 25.3641 178.762 22.2628C183.961 19.1615 188.21 16.7217 188.259 16.8163C188.307 16.9108 184.134 19.5041 178.936 22.6113C173.737 25.7186 169.488 28.1465 169.439 28.052Z" fill="#263238"/>
<path d="M200.891 21.7135C200.989 21.684 202.448 26.6166 204.147 32.7306C205.845 38.8447 207.159 43.8364 207.061 43.8659C206.963 43.8955 205.504 38.9688 203.805 32.8488C202.106 26.7288 200.793 21.7667 200.891 21.7135Z" fill="#263238"/>
<path d="M167.636 101.043C167.712 101.043 167.75 101.385 167.723 101.793C167.696 102.201 167.603 102.525 167.527 102.52C167.451 102.514 167.408 102.177 167.441 101.769C167.473 101.362 167.56 101.037 167.636 101.043Z" fill="#263238"/>
<path d="M167.771 95.035C167.912 95.5214 167.96 96.0341 167.912 96.5414C167.954 97.0472 167.904 97.557 167.765 98.0419C167.628 97.5567 167.582 97.0464 167.63 96.5414C167.586 96.0341 167.634 95.5224 167.771 95.035Z" fill="#263238"/>
<path d="M167.397 89.0568C167.665 90.0264 167.752 91.0449 167.652 92.0518C167.469 91.5832 167.378 91.0781 167.386 90.569C167.299 90.069 167.303 89.5553 167.397 89.0568Z" fill="#263238"/>
<path d="M166.479 83.114C166.7 83.5628 166.836 84.0547 166.881 84.5613C167.015 85.0493 167.057 85.5615 167.006 86.0677C166.786 85.6184 166.65 85.1267 166.604 84.6204C166.467 84.1331 166.424 83.6201 166.479 83.114Z" fill="#263238"/>
<path d="M164.977 77.3308C165.435 78.2128 165.721 79.1881 165.818 80.1959C165.553 79.7774 165.369 79.3053 165.275 78.8076C165.084 78.3425 164.983 77.84 164.977 77.3308Z" fill="#263238"/>
<path d="M162.865 71.7838C163.176 72.163 163.412 72.6072 163.56 73.0893C163.792 73.5316 163.941 74.0195 163.999 74.5248C163.692 74.1433 163.456 73.6997 163.305 73.2193C163.071 72.7777 162.922 72.2896 162.865 71.7838Z" fill="#263238"/>
<path d="M160.124 66.5676C160.189 66.5204 160.58 67.052 160.992 67.7491C161.268 68.1621 161.467 68.6296 161.578 69.1255C161.508 69.1668 161.139 68.6234 160.748 67.9086C160.46 67.5111 160.248 67.0553 160.124 66.5676Z" fill="#263238"/>
<path d="M156.743 61.824C156.803 61.7649 157.248 62.2375 157.736 62.8755C158.068 63.2354 158.332 63.6629 158.512 64.1337C158.447 64.181 158.008 63.7084 157.519 63.0763C157.187 62.719 156.923 62.2933 156.743 61.824Z" fill="#263238"/>
<path d="M152.794 57.6417C152.843 57.5767 153.336 57.9784 153.912 58.5337C154.487 59.0889 154.894 59.597 154.84 59.656C154.417 59.442 154.037 59.1388 153.722 58.764C153.147 58.2088 152.729 57.7066 152.794 57.6417Z" fill="#263238"/>
<path d="M148.305 54.1327C148.754 54.274 149.171 54.5132 149.532 54.8357C150.167 55.2964 150.65 55.7277 150.617 55.7985C150.17 55.6513 149.753 55.4105 149.391 55.0897C148.745 54.6348 148.262 54.2036 148.305 54.1327Z" fill="#263238"/>
<path d="M143.388 51.4036C143.851 51.4683 144.298 51.6351 144.701 51.8939C145.142 52.0603 145.548 52.3215 145.895 52.6618C145.431 52.5971 144.984 52.4302 144.582 52.1715C144.141 52.0032 143.736 51.7423 143.388 51.4036Z" fill="#263238"/>
<path d="M138.141 49.59C138.608 49.5722 139.075 49.6545 139.514 49.8322C139.975 49.9164 140.416 50.1013 140.811 50.3757C140.343 50.3912 139.877 50.309 139.438 50.1335C138.977 50.0463 138.536 49.8616 138.141 49.59Z" fill="#263238"/>
<path d="M132.655 48.828C133.577 48.6594 134.522 48.7426 135.407 49.0702C134.483 49.1514 133.554 49.0696 132.655 48.828Z" fill="#263238"/>
<path d="M127.152 49.2415C128.036 48.9199 128.97 48.7992 129.898 48.8871C129.471 49.0967 129.01 49.2093 128.542 49.2179C128.084 49.3235 127.612 49.3315 127.152 49.2415Z" fill="#263238"/>
<path d="M121.823 50.7893C122.207 50.4999 122.641 50.2989 123.099 50.1985C123.526 49.9956 123.988 49.891 124.455 49.8914C124.07 50.1777 123.637 50.3785 123.18 50.4821C122.75 50.6791 122.289 50.7834 121.823 50.7893Z" fill="#263238"/>
<path d="M116.853 53.3943C116.815 53.3175 117.325 52.9394 118.003 52.5436C118.388 52.2535 118.824 52.0525 119.284 51.9529C118.569 52.6031 117.743 53.0912 116.853 53.3884V53.3943Z" fill="#263238"/>
<path d="M112.447 56.9978C112.393 56.9387 112.827 56.4543 113.413 55.9168C113.744 55.5554 114.136 55.2683 114.569 55.072C114.612 55.1429 114.178 55.6273 113.597 56.1531C113.271 56.5176 112.88 56.8051 112.447 56.9978Z" fill="#263238"/>
<path d="M108.837 61.5346C108.976 61.0454 109.215 60.597 109.537 60.2232C110.009 59.5616 110.47 59.1008 110.525 59.1539C110.579 59.2071 110.226 59.7447 109.759 60.4122C109.293 61.0797 108.902 61.5819 108.837 61.5346Z" fill="#263238"/>
<path d="M106.824 65.4276C106.754 65.3921 106.824 65.0672 106.992 64.6951C107.161 64.3229 107.345 64.0571 107.416 64.1043C107.486 64.1516 107.416 64.4706 107.247 64.8368C107.079 65.2031 106.895 65.4689 106.824 65.4276Z" fill="#263238"/>
<path d="M72.3438 100.281C72.3438 100.198 72.6314 100.092 73.0004 100.038C73.3694 99.9853 73.6787 100.038 73.6896 100.103C73.7004 100.168 73.4128 100.298 73.0329 100.346C72.6531 100.393 72.3492 100.381 72.3438 100.281Z" fill="#263238"/>
<path d="M66.9717 99.6309C67.4281 99.6254 67.8824 99.6992 68.3175 99.8495C68.7718 99.9007 69.2154 100.032 69.6307 100.239C68.7101 100.335 67.7844 100.129 66.9717 99.6486V99.6309Z" fill="#263238"/>
<path d="M62.1092 97.0139C62.5462 97.1628 62.9571 97.3904 63.3248 97.6873C63.9652 98.1009 64.4807 98.4494 64.4481 98.5321C63.9906 98.4434 63.558 98.2413 63.1837 97.9414C62.5325 97.5278 62.0658 97.0848 62.1092 97.0139Z" fill="#263238"/>
<path d="M58.0711 93.0679C58.1308 93.0147 58.5758 93.4637 59.1022 94.0426C59.6286 94.6215 60.0356 95.1118 59.9867 95.1768C59.9379 95.2418 59.444 94.846 58.9014 94.2612C58.3587 93.6763 58.0114 93.127 58.0711 93.0679Z" fill="#263238"/>
<path d="M54.8809 88.2828C54.9514 88.2415 55.3367 88.7554 55.7437 89.4643C56.0312 89.854 56.2451 90.3017 56.3732 90.7816C56.3081 90.8348 55.9228 90.315 55.5103 89.6297C55.2165 89.2335 55.0021 88.7747 54.8809 88.2828Z" fill="#263238"/>
<path d="M52.5361 82.9486C52.8351 83.3288 53.0603 83.7708 53.1982 84.2482C53.4161 84.6901 53.5542 85.1734 53.6052 85.6719C53.3034 85.2929 53.0763 84.8506 52.9377 84.3723C52.7183 83.9315 52.5818 83.4475 52.5361 82.9486Z" fill="#263238"/>
<path d="M50.9783 77.2776C51.2231 77.7025 51.3874 78.1766 51.4612 78.6717C51.6217 79.1415 51.6919 79.6421 51.6675 80.1426C51.4187 79.7198 51.2542 79.2449 51.1845 78.7485C51.0243 78.2786 50.9541 77.7781 50.9783 77.2776Z" fill="#263238"/>
<path d="M50.0341 71.4471C50.2328 71.8989 50.3489 72.3885 50.376 72.8885C50.4898 73.3749 50.512 73.8813 50.4411 74.3772C50.2375 73.9273 50.1212 73.4367 50.0992 72.9358C49.9821 72.45 49.96 71.9429 50.0341 71.4471Z" fill="#263238"/>
<path d="M49.513 65.5575C49.7738 66.5148 49.8477 67.5209 49.7301 68.5112C49.5563 68.0484 49.4713 67.5519 49.4805 67.052C49.3952 66.5569 49.4063 66.0477 49.513 65.5575Z" fill="#263238"/>
<path d="M49.2865 61.1211C49.3679 61.1211 49.4438 61.446 49.4601 61.8536C49.4764 62.2612 49.4276 62.592 49.3516 62.5979C49.2756 62.6038 49.1942 62.273 49.1779 61.8654C49.1617 61.4578 49.2105 61.127 49.2865 61.1211Z" fill="#263238"/>
<path d="M69.7209 25.3038L24.5996 27.6201L26.0339 60.7292L71.1552 58.4129L69.7209 25.3038Z" fill="#96ABC6"/>
<path d="M26.0156 60.7434L24.583 27.6211L69.7219 25.3054L71.1545 58.4277L26.0156 60.7434ZM24.6101 27.6211L26.0428 60.702L71.1382 58.3864L69.7056 25.3054L24.6101 27.6211Z" fill="#263238"/>
<path d="M69.8794 25.6949C69.7598 25.8625 69.6252 26.0168 69.4778 26.1557L68.2731 27.4199L63.7961 32.0099L48.8512 47.0558L48.7263 47.1798L48.5907 47.0735L48.2651 46.8136L31.589 33.593C29.4943 31.9035 27.7903 30.5271 26.5639 29.5465L25.2127 28.4241C25.0484 28.3032 24.8957 28.1647 24.7568 28.0106C24.9332 28.11 25.102 28.2246 25.2615 28.3532L26.6616 29.3929L31.7626 33.3272L48.5038 46.4414L48.8349 46.7014H48.5744L63.5954 31.7558L68.1646 27.2722L69.4236 26.0907C69.5624 25.9418 69.7152 25.8092 69.8794 25.6949Z" fill="#263238"/>
<path d="M26.1883 61.1211C26.1014 61.0443 29.2977 56.3303 33.3297 50.5943C37.3617 44.8583 40.7045 40.2683 40.7914 40.3392C40.8782 40.4101 37.6873 45.13 33.6553 50.866C29.6233 56.602 26.2805 61.192 26.1883 61.1211Z" fill="#263238"/>
<path d="M55.776 39.1578C55.8629 39.0751 59.4119 43.411 63.699 48.834C67.986 54.2569 71.3994 58.7228 71.2963 58.8055C71.1931 58.8882 67.6658 54.5522 63.3733 49.1234C59.0809 43.6946 55.6892 39.2405 55.776 39.1578Z" fill="#263238"/>
</svg>
